%TF.GenerationSoftware,KiCad,Pcbnew,5.1.10*%
%TF.CreationDate,2021-05-09T20:03:51-07:00*%
%TF.ProjectId,ECE148_LED,45434531-3438-45f4-9c45-442e6b696361,rev?*%
%TF.SameCoordinates,Original*%
%TF.FileFunction,Copper,L2,Bot*%
%TF.FilePolarity,Positive*%
%FSLAX46Y46*%
G04 Gerber Fmt 4.6, Leading zero omitted, Abs format (unit mm)*
G04 Created by KiCad (PCBNEW 5.1.10) date 2021-05-09 20:03:51*
%MOMM*%
%LPD*%
G01*
G04 APERTURE LIST*
%TA.AperFunction,ComponentPad*%
%ADD10C,1.600000*%
%TD*%
%TA.AperFunction,ComponentPad*%
%ADD11R,1.600000X1.600000*%
%TD*%
%TA.AperFunction,ComponentPad*%
%ADD12O,1.200000X1.750000*%
%TD*%
%TA.AperFunction,ViaPad*%
%ADD13C,0.800000*%
%TD*%
%TA.AperFunction,Conductor*%
%ADD14C,0.250000*%
%TD*%
%TA.AperFunction,Conductor*%
%ADD15C,0.254000*%
%TD*%
%TA.AperFunction,Conductor*%
%ADD16C,0.100000*%
%TD*%
G04 APERTURE END LIST*
D10*
X47085000Y-87630000D03*
D11*
X45085000Y-87630000D03*
D12*
X47085000Y-93345000D03*
%TA.AperFunction,ComponentPad*%
G36*
G01*
X44485000Y-93970001D02*
X44485000Y-92719999D01*
G75*
G02*
X44734999Y-92470000I249999J0D01*
G01*
X45435001Y-92470000D01*
G75*
G02*
X45685000Y-92719999I0J-249999D01*
G01*
X45685000Y-93970001D01*
G75*
G02*
X45435001Y-94220000I-249999J0D01*
G01*
X44734999Y-94220000D01*
G75*
G02*
X44485000Y-93970001I0J249999D01*
G01*
G37*
%TD.AperFunction*%
D13*
X49784000Y-44577000D03*
X45085000Y-34798000D03*
X45034000Y-84074000D03*
X49961800Y-61747400D03*
X50266600Y-58470800D03*
X41148000Y-48844000D03*
X48260000Y-52375000D03*
X42113000Y-67310000D03*
X52654000Y-69342000D03*
X48590000Y-69342000D03*
X50495000Y-69342000D03*
X42240000Y-73914000D03*
X49149000Y-77775000D03*
X49149000Y-75489000D03*
X107188000Y-33071000D03*
X126924000Y-64262000D03*
X110998000Y-102921000D03*
X56388000Y-102794000D03*
X35611000Y-68072000D03*
X52578000Y-33071000D03*
X99949000Y-31420000D03*
X113665000Y-31420000D03*
X72390000Y-31293000D03*
X86106000Y-31293000D03*
X45085000Y-31420000D03*
X58801000Y-31420000D03*
X60198000Y-104470000D03*
X46482000Y-104470000D03*
X87630000Y-104470000D03*
X73914000Y-104470000D03*
X101346000Y-104470000D03*
X115062000Y-104470000D03*
X33960000Y-47752000D03*
X128600000Y-88265000D03*
X128600000Y-102108000D03*
X128600000Y-60198000D03*
X128600000Y-74041000D03*
X128600000Y-32385000D03*
X128600000Y-46228000D03*
X33960000Y-75692000D03*
X33960000Y-61849000D03*
X33960000Y-103632000D03*
X33960000Y-89789000D03*
X33960000Y-33782000D03*
X41910000Y-61468000D03*
X47244000Y-56718200D03*
X46990000Y-38481002D03*
X45085000Y-59817000D03*
X48006000Y-46863000D03*
X46990000Y-47752000D03*
X45339000Y-61214000D03*
X46863000Y-49022000D03*
X46355000Y-61722000D03*
X49022000Y-56388000D03*
X48260000Y-50800000D03*
D14*
X46609000Y-36322000D02*
X45085000Y-34798000D01*
X47752000Y-36322000D02*
X46609000Y-36322000D01*
X49784000Y-38354000D02*
X47752000Y-36322000D01*
X49784000Y-44577000D02*
X49784000Y-38354000D01*
X45085000Y-59817000D02*
X45085000Y-48260000D01*
X46482000Y-46863000D02*
X48006000Y-46863000D01*
X45085000Y-48260000D02*
X46482000Y-46863000D01*
X45847000Y-60706000D02*
X45339000Y-61214000D01*
X45847000Y-48895000D02*
X45847000Y-60706000D01*
X46990000Y-47752000D02*
X45847000Y-48895000D01*
X46355000Y-61722000D02*
X46355000Y-55753000D01*
X46863000Y-55245000D02*
X46863000Y-49022000D01*
X46355000Y-55753000D02*
X46863000Y-55245000D01*
X49022000Y-56388000D02*
X49022000Y-52063998D01*
X49022000Y-51562000D02*
X48260000Y-50800000D01*
X49022000Y-52063998D02*
X49022000Y-51562000D01*
D15*
X129657869Y-28614722D02*
X129771246Y-28648953D01*
X129875819Y-28704555D01*
X129967596Y-28779407D01*
X130043091Y-28870664D01*
X130099419Y-28974844D01*
X130134440Y-29087976D01*
X130150000Y-29236022D01*
X130150001Y-106647711D01*
X130135278Y-106797869D01*
X130101047Y-106911246D01*
X130045446Y-107015817D01*
X129970594Y-107107595D01*
X129879335Y-107183091D01*
X129775160Y-107239419D01*
X129662024Y-107274440D01*
X129513979Y-107290000D01*
X33052279Y-107290000D01*
X32902131Y-107275278D01*
X32788754Y-107241047D01*
X32684183Y-107185446D01*
X32592405Y-107110594D01*
X32516909Y-107019335D01*
X32460581Y-106915160D01*
X32425560Y-106802024D01*
X32410000Y-106653979D01*
X32410000Y-92719999D01*
X43846928Y-92719999D01*
X43846928Y-93970001D01*
X43863992Y-94143255D01*
X43914528Y-94309851D01*
X43996595Y-94463387D01*
X44107038Y-94597962D01*
X44241613Y-94708405D01*
X44395149Y-94790472D01*
X44561745Y-94841008D01*
X44734999Y-94858072D01*
X45435001Y-94858072D01*
X45608255Y-94841008D01*
X45774851Y-94790472D01*
X45928387Y-94708405D01*
X46062962Y-94597962D01*
X46173405Y-94463387D01*
X46175967Y-94458594D01*
X46301526Y-94583078D01*
X46504467Y-94717421D01*
X46729718Y-94809591D01*
X46767391Y-94813462D01*
X46958000Y-94688731D01*
X46958000Y-93472000D01*
X47212000Y-93472000D01*
X47212000Y-94688731D01*
X47402609Y-94813462D01*
X47440282Y-94809591D01*
X47665533Y-94717421D01*
X47868474Y-94583078D01*
X48041307Y-94411725D01*
X48177390Y-94209946D01*
X48271493Y-93985496D01*
X48320000Y-93747000D01*
X48320000Y-93472000D01*
X47212000Y-93472000D01*
X46958000Y-93472000D01*
X46938000Y-93472000D01*
X46938000Y-93218000D01*
X46958000Y-93218000D01*
X46958000Y-92001269D01*
X47212000Y-92001269D01*
X47212000Y-93218000D01*
X48320000Y-93218000D01*
X48320000Y-92943000D01*
X48271493Y-92704504D01*
X48177390Y-92480054D01*
X48041307Y-92278275D01*
X47868474Y-92106922D01*
X47665533Y-91972579D01*
X47440282Y-91880409D01*
X47402609Y-91876538D01*
X47212000Y-92001269D01*
X46958000Y-92001269D01*
X46767391Y-91876538D01*
X46729718Y-91880409D01*
X46504467Y-91972579D01*
X46301526Y-92106922D01*
X46175967Y-92231406D01*
X46173405Y-92226613D01*
X46062962Y-92092038D01*
X45928387Y-91981595D01*
X45774851Y-91899528D01*
X45608255Y-91848992D01*
X45435001Y-91831928D01*
X44734999Y-91831928D01*
X44561745Y-91848992D01*
X44395149Y-91899528D01*
X44241613Y-91981595D01*
X44107038Y-92092038D01*
X43996595Y-92226613D01*
X43914528Y-92380149D01*
X43863992Y-92546745D01*
X43846928Y-92719999D01*
X32410000Y-92719999D01*
X32410000Y-86830000D01*
X43646928Y-86830000D01*
X43646928Y-88430000D01*
X43659188Y-88554482D01*
X43695498Y-88674180D01*
X43754463Y-88784494D01*
X43833815Y-88881185D01*
X43930506Y-88960537D01*
X44040820Y-89019502D01*
X44160518Y-89055812D01*
X44285000Y-89068072D01*
X45885000Y-89068072D01*
X46009482Y-89055812D01*
X46129180Y-89019502D01*
X46239494Y-88960537D01*
X46336185Y-88881185D01*
X46346807Y-88868242D01*
X46598996Y-88987571D01*
X46873184Y-89056300D01*
X47155512Y-89070217D01*
X47435130Y-89028787D01*
X47701292Y-88933603D01*
X47826514Y-88866671D01*
X47898097Y-88622702D01*
X47085000Y-87809605D01*
X47070858Y-87823748D01*
X46891253Y-87644143D01*
X46905395Y-87630000D01*
X47264605Y-87630000D01*
X48077702Y-88443097D01*
X48321671Y-88371514D01*
X48442571Y-88116004D01*
X48511300Y-87841816D01*
X48525217Y-87559488D01*
X48483787Y-87279870D01*
X48388603Y-87013708D01*
X48321671Y-86888486D01*
X48077702Y-86816903D01*
X47264605Y-87630000D01*
X46905395Y-87630000D01*
X46891253Y-87615858D01*
X47070858Y-87436253D01*
X47085000Y-87450395D01*
X47898097Y-86637298D01*
X47826514Y-86393329D01*
X47571004Y-86272429D01*
X47296816Y-86203700D01*
X47014488Y-86189783D01*
X46734870Y-86231213D01*
X46468708Y-86326397D01*
X46346691Y-86391616D01*
X46336185Y-86378815D01*
X46239494Y-86299463D01*
X46129180Y-86240498D01*
X46009482Y-86204188D01*
X45885000Y-86191928D01*
X44285000Y-86191928D01*
X44160518Y-86204188D01*
X44040820Y-86240498D01*
X43930506Y-86299463D01*
X43833815Y-86378815D01*
X43754463Y-86475506D01*
X43695498Y-86585820D01*
X43659188Y-86705518D01*
X43646928Y-86830000D01*
X32410000Y-86830000D01*
X32410000Y-59715061D01*
X44050000Y-59715061D01*
X44050000Y-59918939D01*
X44089774Y-60118898D01*
X44167795Y-60307256D01*
X44281063Y-60476774D01*
X44425226Y-60620937D01*
X44470345Y-60651084D01*
X44421795Y-60723744D01*
X44343774Y-60912102D01*
X44304000Y-61112061D01*
X44304000Y-61315939D01*
X44343774Y-61515898D01*
X44421795Y-61704256D01*
X44535063Y-61873774D01*
X44679226Y-62017937D01*
X44848744Y-62131205D01*
X45037102Y-62209226D01*
X45237061Y-62249000D01*
X45440939Y-62249000D01*
X45459835Y-62245241D01*
X45551063Y-62381774D01*
X45695226Y-62525937D01*
X45864744Y-62639205D01*
X46053102Y-62717226D01*
X46253061Y-62757000D01*
X46456939Y-62757000D01*
X46656898Y-62717226D01*
X46845256Y-62639205D01*
X47014774Y-62525937D01*
X47158937Y-62381774D01*
X47272205Y-62212256D01*
X47350226Y-62023898D01*
X47390000Y-61823939D01*
X47390000Y-61620061D01*
X47350226Y-61420102D01*
X47272205Y-61231744D01*
X47158937Y-61062226D01*
X47115000Y-61018289D01*
X47115000Y-56067801D01*
X47374003Y-55808798D01*
X47403001Y-55785001D01*
X47497974Y-55669276D01*
X47568546Y-55537247D01*
X47612003Y-55393986D01*
X47623000Y-55282333D01*
X47623000Y-55282324D01*
X47626676Y-55245001D01*
X47623000Y-55207678D01*
X47623000Y-51619154D01*
X47769744Y-51717205D01*
X47958102Y-51795226D01*
X48158061Y-51835000D01*
X48220198Y-51835000D01*
X48262000Y-51876802D01*
X48262000Y-52101330D01*
X48262001Y-52101340D01*
X48262000Y-55684289D01*
X48218063Y-55728226D01*
X48104795Y-55897744D01*
X48026774Y-56086102D01*
X47987000Y-56286061D01*
X47987000Y-56489939D01*
X48026774Y-56689898D01*
X48104795Y-56878256D01*
X48218063Y-57047774D01*
X48362226Y-57191937D01*
X48531744Y-57305205D01*
X48720102Y-57383226D01*
X48920061Y-57423000D01*
X49123939Y-57423000D01*
X49323898Y-57383226D01*
X49512256Y-57305205D01*
X49681774Y-57191937D01*
X49825937Y-57047774D01*
X49939205Y-56878256D01*
X50017226Y-56689898D01*
X50057000Y-56489939D01*
X50057000Y-56286061D01*
X50017226Y-56086102D01*
X49939205Y-55897744D01*
X49825937Y-55728226D01*
X49782000Y-55684289D01*
X49782000Y-51599325D01*
X49785676Y-51562000D01*
X49782000Y-51524675D01*
X49782000Y-51524667D01*
X49771003Y-51413014D01*
X49727546Y-51269753D01*
X49656974Y-51137724D01*
X49562001Y-51021999D01*
X49533002Y-50998201D01*
X49295000Y-50760198D01*
X49295000Y-50698061D01*
X49255226Y-50498102D01*
X49177205Y-50309744D01*
X49063937Y-50140226D01*
X48919774Y-49996063D01*
X48750256Y-49882795D01*
X48561898Y-49804774D01*
X48361939Y-49765000D01*
X48158061Y-49765000D01*
X47958102Y-49804774D01*
X47769744Y-49882795D01*
X47623000Y-49980846D01*
X47623000Y-49725711D01*
X47666937Y-49681774D01*
X47780205Y-49512256D01*
X47858226Y-49323898D01*
X47898000Y-49123939D01*
X47898000Y-48920061D01*
X47858226Y-48720102D01*
X47780205Y-48531744D01*
X47737652Y-48468059D01*
X47793937Y-48411774D01*
X47907205Y-48242256D01*
X47985226Y-48053898D01*
X48016236Y-47898000D01*
X48107939Y-47898000D01*
X48307898Y-47858226D01*
X48496256Y-47780205D01*
X48665774Y-47666937D01*
X48809937Y-47522774D01*
X48923205Y-47353256D01*
X49001226Y-47164898D01*
X49041000Y-46964939D01*
X49041000Y-46761061D01*
X49001226Y-46561102D01*
X48923205Y-46372744D01*
X48809937Y-46203226D01*
X48665774Y-46059063D01*
X48496256Y-45945795D01*
X48307898Y-45867774D01*
X48107939Y-45828000D01*
X47904061Y-45828000D01*
X47704102Y-45867774D01*
X47515744Y-45945795D01*
X47346226Y-46059063D01*
X47302289Y-46103000D01*
X46519322Y-46103000D01*
X46481999Y-46099324D01*
X46444676Y-46103000D01*
X46444667Y-46103000D01*
X46333014Y-46113997D01*
X46189753Y-46157454D01*
X46057724Y-46228026D01*
X45941999Y-46322999D01*
X45918201Y-46351997D01*
X44573998Y-47696201D01*
X44545000Y-47719999D01*
X44521202Y-47748997D01*
X44521201Y-47748998D01*
X44450026Y-47835724D01*
X44379454Y-47967754D01*
X44361551Y-48026774D01*
X44335998Y-48111014D01*
X44325001Y-48222667D01*
X44321324Y-48260000D01*
X44325001Y-48297332D01*
X44325000Y-59113289D01*
X44281063Y-59157226D01*
X44167795Y-59326744D01*
X44089774Y-59515102D01*
X44050000Y-59715061D01*
X32410000Y-59715061D01*
X32410000Y-45687581D01*
X55220000Y-45687581D01*
X55220000Y-45687582D01*
X55220001Y-95282419D01*
X55222802Y-95310855D01*
X55222747Y-95318682D01*
X55223646Y-95327853D01*
X55249554Y-95574357D01*
X55261589Y-95632986D01*
X55272792Y-95691716D01*
X55275456Y-95700538D01*
X55348751Y-95937314D01*
X55371931Y-95992457D01*
X55394339Y-96047920D01*
X55398665Y-96056054D01*
X55398667Y-96056059D01*
X55398670Y-96056064D01*
X55516553Y-96274086D01*
X55549988Y-96323654D01*
X55582759Y-96373735D01*
X55588584Y-96380876D01*
X55746577Y-96571856D01*
X55789012Y-96613995D01*
X55830875Y-96656745D01*
X55837976Y-96662618D01*
X56030053Y-96819273D01*
X56079875Y-96852374D01*
X56129237Y-96886173D01*
X56137343Y-96890556D01*
X56356191Y-97006919D01*
X56411479Y-97029707D01*
X56466475Y-97053279D01*
X56475278Y-97056003D01*
X56712559Y-97127643D01*
X56771246Y-97139264D01*
X56829752Y-97151700D01*
X56838915Y-97152663D01*
X56838917Y-97152663D01*
X57085595Y-97176850D01*
X57085598Y-97176850D01*
X57117581Y-97180000D01*
X118142419Y-97180000D01*
X118170865Y-97177198D01*
X118178682Y-97177253D01*
X118187853Y-97176354D01*
X118434357Y-97150446D01*
X118492986Y-97138411D01*
X118551716Y-97127208D01*
X118560532Y-97124546D01*
X118560536Y-97124545D01*
X118560539Y-97124544D01*
X118797314Y-97051249D01*
X118852457Y-97028069D01*
X118907920Y-97005661D01*
X118916054Y-97001335D01*
X118916059Y-97001333D01*
X118916064Y-97001330D01*
X119134086Y-96883447D01*
X119183654Y-96850012D01*
X119233735Y-96817241D01*
X119240876Y-96811416D01*
X119431856Y-96653423D01*
X119473995Y-96610988D01*
X119516745Y-96569125D01*
X119522618Y-96562024D01*
X119679273Y-96369947D01*
X119712374Y-96320125D01*
X119746173Y-96270763D01*
X119750556Y-96262657D01*
X119866919Y-96043809D01*
X119889707Y-95988521D01*
X119913279Y-95933525D01*
X119916003Y-95924722D01*
X119987643Y-95687441D01*
X119999264Y-95628754D01*
X120011700Y-95570248D01*
X120012663Y-95561083D01*
X120036850Y-95314405D01*
X120036850Y-95314402D01*
X120040000Y-95282419D01*
X120040000Y-39337581D01*
X120037198Y-39309135D01*
X120037253Y-39301318D01*
X120036354Y-39292147D01*
X120010446Y-39045644D01*
X119998414Y-38987028D01*
X119987208Y-38928284D01*
X119984544Y-38919462D01*
X119911249Y-38682686D01*
X119888074Y-38627555D01*
X119865661Y-38572080D01*
X119861334Y-38563944D01*
X119743446Y-38345914D01*
X119710012Y-38296346D01*
X119677240Y-38246265D01*
X119671416Y-38239124D01*
X119513423Y-38048144D01*
X119470988Y-38006005D01*
X119429125Y-37963255D01*
X119422024Y-37957381D01*
X119229946Y-37800727D01*
X119180169Y-37767655D01*
X119130763Y-37733826D01*
X119122657Y-37729444D01*
X118903809Y-37613081D01*
X118848532Y-37590298D01*
X118793525Y-37566721D01*
X118784722Y-37563997D01*
X118547441Y-37492357D01*
X118488754Y-37480736D01*
X118430248Y-37468300D01*
X118421085Y-37467337D01*
X118421083Y-37467337D01*
X118174405Y-37443150D01*
X118174402Y-37443150D01*
X118142419Y-37440000D01*
X57117581Y-37440000D01*
X57089135Y-37442802D01*
X57081318Y-37442747D01*
X57072147Y-37443646D01*
X56825644Y-37469554D01*
X56767028Y-37481586D01*
X56708284Y-37492792D01*
X56699462Y-37495456D01*
X56462686Y-37568751D01*
X56407555Y-37591926D01*
X56352080Y-37614339D01*
X56343944Y-37618666D01*
X56125914Y-37736554D01*
X56076346Y-37769988D01*
X56026265Y-37802760D01*
X56019124Y-37808584D01*
X55828144Y-37966577D01*
X55786005Y-38009012D01*
X55743255Y-38050875D01*
X55737381Y-38057976D01*
X55580727Y-38250054D01*
X55547655Y-38299831D01*
X55513826Y-38349237D01*
X55509444Y-38357343D01*
X55393081Y-38576191D01*
X55370298Y-38631468D01*
X55346721Y-38686475D01*
X55343997Y-38695278D01*
X55272357Y-38932559D01*
X55260736Y-38991246D01*
X55248300Y-39049752D01*
X55247337Y-39058917D01*
X55223150Y-39305595D01*
X55223150Y-39305608D01*
X55220001Y-39337581D01*
X55220000Y-45687581D01*
X32410000Y-45687581D01*
X32410000Y-34696061D01*
X44050000Y-34696061D01*
X44050000Y-34899939D01*
X44089774Y-35099898D01*
X44167795Y-35288256D01*
X44281063Y-35457774D01*
X44425226Y-35601937D01*
X44594744Y-35715205D01*
X44783102Y-35793226D01*
X44983061Y-35833000D01*
X45045198Y-35833000D01*
X46045205Y-36833008D01*
X46068999Y-36862001D01*
X46097992Y-36885795D01*
X46097996Y-36885799D01*
X46168685Y-36943811D01*
X46184724Y-36956974D01*
X46316753Y-37027546D01*
X46460014Y-37071003D01*
X46571667Y-37082000D01*
X46571676Y-37082000D01*
X46608999Y-37085676D01*
X46646322Y-37082000D01*
X47437199Y-37082000D01*
X49024001Y-38668803D01*
X49024000Y-43873289D01*
X48980063Y-43917226D01*
X48866795Y-44086744D01*
X48788774Y-44275102D01*
X48749000Y-44475061D01*
X48749000Y-44678939D01*
X48788774Y-44878898D01*
X48866795Y-45067256D01*
X48980063Y-45236774D01*
X49124226Y-45380937D01*
X49293744Y-45494205D01*
X49482102Y-45572226D01*
X49682061Y-45612000D01*
X49885939Y-45612000D01*
X50085898Y-45572226D01*
X50274256Y-45494205D01*
X50443774Y-45380937D01*
X50587937Y-45236774D01*
X50701205Y-45067256D01*
X50779226Y-44878898D01*
X50819000Y-44678939D01*
X50819000Y-44475061D01*
X50779226Y-44275102D01*
X50701205Y-44086744D01*
X50587937Y-43917226D01*
X50544000Y-43873289D01*
X50544000Y-38391323D01*
X50547676Y-38354000D01*
X50544000Y-38316677D01*
X50544000Y-38316667D01*
X50533003Y-38205014D01*
X50489546Y-38061753D01*
X50471501Y-38027994D01*
X50418974Y-37929723D01*
X50347799Y-37842997D01*
X50324001Y-37813999D01*
X50295003Y-37790201D01*
X48315804Y-35811003D01*
X48292001Y-35781999D01*
X48176276Y-35687026D01*
X48044247Y-35616454D01*
X47900986Y-35572997D01*
X47789333Y-35562000D01*
X47789322Y-35562000D01*
X47752000Y-35558324D01*
X47714678Y-35562000D01*
X46923803Y-35562000D01*
X46120000Y-34758198D01*
X46120000Y-34696061D01*
X46080226Y-34496102D01*
X46002205Y-34307744D01*
X45888937Y-34138226D01*
X45744774Y-33994063D01*
X45575256Y-33880795D01*
X45386898Y-33802774D01*
X45186939Y-33763000D01*
X44983061Y-33763000D01*
X44783102Y-33802774D01*
X44594744Y-33880795D01*
X44425226Y-33994063D01*
X44281063Y-34138226D01*
X44167795Y-34307744D01*
X44089774Y-34496102D01*
X44050000Y-34696061D01*
X32410000Y-34696061D01*
X32410000Y-29242279D01*
X32424722Y-29092131D01*
X32458953Y-28978754D01*
X32514555Y-28874181D01*
X32589407Y-28782404D01*
X32680664Y-28706909D01*
X32784844Y-28650581D01*
X32897976Y-28615560D01*
X33046022Y-28600000D01*
X129507721Y-28600000D01*
X129657869Y-28614722D01*
%TA.AperFunction,Conductor*%
D16*
G36*
X129657869Y-28614722D02*
G01*
X129771246Y-28648953D01*
X129875819Y-28704555D01*
X129967596Y-28779407D01*
X130043091Y-28870664D01*
X130099419Y-28974844D01*
X130134440Y-29087976D01*
X130150000Y-29236022D01*
X130150001Y-106647711D01*
X130135278Y-106797869D01*
X130101047Y-106911246D01*
X130045446Y-107015817D01*
X129970594Y-107107595D01*
X129879335Y-107183091D01*
X129775160Y-107239419D01*
X129662024Y-107274440D01*
X129513979Y-107290000D01*
X33052279Y-107290000D01*
X32902131Y-107275278D01*
X32788754Y-107241047D01*
X32684183Y-107185446D01*
X32592405Y-107110594D01*
X32516909Y-107019335D01*
X32460581Y-106915160D01*
X32425560Y-106802024D01*
X32410000Y-106653979D01*
X32410000Y-92719999D01*
X43846928Y-92719999D01*
X43846928Y-93970001D01*
X43863992Y-94143255D01*
X43914528Y-94309851D01*
X43996595Y-94463387D01*
X44107038Y-94597962D01*
X44241613Y-94708405D01*
X44395149Y-94790472D01*
X44561745Y-94841008D01*
X44734999Y-94858072D01*
X45435001Y-94858072D01*
X45608255Y-94841008D01*
X45774851Y-94790472D01*
X45928387Y-94708405D01*
X46062962Y-94597962D01*
X46173405Y-94463387D01*
X46175967Y-94458594D01*
X46301526Y-94583078D01*
X46504467Y-94717421D01*
X46729718Y-94809591D01*
X46767391Y-94813462D01*
X46958000Y-94688731D01*
X46958000Y-93472000D01*
X47212000Y-93472000D01*
X47212000Y-94688731D01*
X47402609Y-94813462D01*
X47440282Y-94809591D01*
X47665533Y-94717421D01*
X47868474Y-94583078D01*
X48041307Y-94411725D01*
X48177390Y-94209946D01*
X48271493Y-93985496D01*
X48320000Y-93747000D01*
X48320000Y-93472000D01*
X47212000Y-93472000D01*
X46958000Y-93472000D01*
X46938000Y-93472000D01*
X46938000Y-93218000D01*
X46958000Y-93218000D01*
X46958000Y-92001269D01*
X47212000Y-92001269D01*
X47212000Y-93218000D01*
X48320000Y-93218000D01*
X48320000Y-92943000D01*
X48271493Y-92704504D01*
X48177390Y-92480054D01*
X48041307Y-92278275D01*
X47868474Y-92106922D01*
X47665533Y-91972579D01*
X47440282Y-91880409D01*
X47402609Y-91876538D01*
X47212000Y-92001269D01*
X46958000Y-92001269D01*
X46767391Y-91876538D01*
X46729718Y-91880409D01*
X46504467Y-91972579D01*
X46301526Y-92106922D01*
X46175967Y-92231406D01*
X46173405Y-92226613D01*
X46062962Y-92092038D01*
X45928387Y-91981595D01*
X45774851Y-91899528D01*
X45608255Y-91848992D01*
X45435001Y-91831928D01*
X44734999Y-91831928D01*
X44561745Y-91848992D01*
X44395149Y-91899528D01*
X44241613Y-91981595D01*
X44107038Y-92092038D01*
X43996595Y-92226613D01*
X43914528Y-92380149D01*
X43863992Y-92546745D01*
X43846928Y-92719999D01*
X32410000Y-92719999D01*
X32410000Y-86830000D01*
X43646928Y-86830000D01*
X43646928Y-88430000D01*
X43659188Y-88554482D01*
X43695498Y-88674180D01*
X43754463Y-88784494D01*
X43833815Y-88881185D01*
X43930506Y-88960537D01*
X44040820Y-89019502D01*
X44160518Y-89055812D01*
X44285000Y-89068072D01*
X45885000Y-89068072D01*
X46009482Y-89055812D01*
X46129180Y-89019502D01*
X46239494Y-88960537D01*
X46336185Y-88881185D01*
X46346807Y-88868242D01*
X46598996Y-88987571D01*
X46873184Y-89056300D01*
X47155512Y-89070217D01*
X47435130Y-89028787D01*
X47701292Y-88933603D01*
X47826514Y-88866671D01*
X47898097Y-88622702D01*
X47085000Y-87809605D01*
X47070858Y-87823748D01*
X46891253Y-87644143D01*
X46905395Y-87630000D01*
X47264605Y-87630000D01*
X48077702Y-88443097D01*
X48321671Y-88371514D01*
X48442571Y-88116004D01*
X48511300Y-87841816D01*
X48525217Y-87559488D01*
X48483787Y-87279870D01*
X48388603Y-87013708D01*
X48321671Y-86888486D01*
X48077702Y-86816903D01*
X47264605Y-87630000D01*
X46905395Y-87630000D01*
X46891253Y-87615858D01*
X47070858Y-87436253D01*
X47085000Y-87450395D01*
X47898097Y-86637298D01*
X47826514Y-86393329D01*
X47571004Y-86272429D01*
X47296816Y-86203700D01*
X47014488Y-86189783D01*
X46734870Y-86231213D01*
X46468708Y-86326397D01*
X46346691Y-86391616D01*
X46336185Y-86378815D01*
X46239494Y-86299463D01*
X46129180Y-86240498D01*
X46009482Y-86204188D01*
X45885000Y-86191928D01*
X44285000Y-86191928D01*
X44160518Y-86204188D01*
X44040820Y-86240498D01*
X43930506Y-86299463D01*
X43833815Y-86378815D01*
X43754463Y-86475506D01*
X43695498Y-86585820D01*
X43659188Y-86705518D01*
X43646928Y-86830000D01*
X32410000Y-86830000D01*
X32410000Y-59715061D01*
X44050000Y-59715061D01*
X44050000Y-59918939D01*
X44089774Y-60118898D01*
X44167795Y-60307256D01*
X44281063Y-60476774D01*
X44425226Y-60620937D01*
X44470345Y-60651084D01*
X44421795Y-60723744D01*
X44343774Y-60912102D01*
X44304000Y-61112061D01*
X44304000Y-61315939D01*
X44343774Y-61515898D01*
X44421795Y-61704256D01*
X44535063Y-61873774D01*
X44679226Y-62017937D01*
X44848744Y-62131205D01*
X45037102Y-62209226D01*
X45237061Y-62249000D01*
X45440939Y-62249000D01*
X45459835Y-62245241D01*
X45551063Y-62381774D01*
X45695226Y-62525937D01*
X45864744Y-62639205D01*
X46053102Y-62717226D01*
X46253061Y-62757000D01*
X46456939Y-62757000D01*
X46656898Y-62717226D01*
X46845256Y-62639205D01*
X47014774Y-62525937D01*
X47158937Y-62381774D01*
X47272205Y-62212256D01*
X47350226Y-62023898D01*
X47390000Y-61823939D01*
X47390000Y-61620061D01*
X47350226Y-61420102D01*
X47272205Y-61231744D01*
X47158937Y-61062226D01*
X47115000Y-61018289D01*
X47115000Y-56067801D01*
X47374003Y-55808798D01*
X47403001Y-55785001D01*
X47497974Y-55669276D01*
X47568546Y-55537247D01*
X47612003Y-55393986D01*
X47623000Y-55282333D01*
X47623000Y-55282324D01*
X47626676Y-55245001D01*
X47623000Y-55207678D01*
X47623000Y-51619154D01*
X47769744Y-51717205D01*
X47958102Y-51795226D01*
X48158061Y-51835000D01*
X48220198Y-51835000D01*
X48262000Y-51876802D01*
X48262000Y-52101330D01*
X48262001Y-52101340D01*
X48262000Y-55684289D01*
X48218063Y-55728226D01*
X48104795Y-55897744D01*
X48026774Y-56086102D01*
X47987000Y-56286061D01*
X47987000Y-56489939D01*
X48026774Y-56689898D01*
X48104795Y-56878256D01*
X48218063Y-57047774D01*
X48362226Y-57191937D01*
X48531744Y-57305205D01*
X48720102Y-57383226D01*
X48920061Y-57423000D01*
X49123939Y-57423000D01*
X49323898Y-57383226D01*
X49512256Y-57305205D01*
X49681774Y-57191937D01*
X49825937Y-57047774D01*
X49939205Y-56878256D01*
X50017226Y-56689898D01*
X50057000Y-56489939D01*
X50057000Y-56286061D01*
X50017226Y-56086102D01*
X49939205Y-55897744D01*
X49825937Y-55728226D01*
X49782000Y-55684289D01*
X49782000Y-51599325D01*
X49785676Y-51562000D01*
X49782000Y-51524675D01*
X49782000Y-51524667D01*
X49771003Y-51413014D01*
X49727546Y-51269753D01*
X49656974Y-51137724D01*
X49562001Y-51021999D01*
X49533002Y-50998201D01*
X49295000Y-50760198D01*
X49295000Y-50698061D01*
X49255226Y-50498102D01*
X49177205Y-50309744D01*
X49063937Y-50140226D01*
X48919774Y-49996063D01*
X48750256Y-49882795D01*
X48561898Y-49804774D01*
X48361939Y-49765000D01*
X48158061Y-49765000D01*
X47958102Y-49804774D01*
X47769744Y-49882795D01*
X47623000Y-49980846D01*
X47623000Y-49725711D01*
X47666937Y-49681774D01*
X47780205Y-49512256D01*
X47858226Y-49323898D01*
X47898000Y-49123939D01*
X47898000Y-48920061D01*
X47858226Y-48720102D01*
X47780205Y-48531744D01*
X47737652Y-48468059D01*
X47793937Y-48411774D01*
X47907205Y-48242256D01*
X47985226Y-48053898D01*
X48016236Y-47898000D01*
X48107939Y-47898000D01*
X48307898Y-47858226D01*
X48496256Y-47780205D01*
X48665774Y-47666937D01*
X48809937Y-47522774D01*
X48923205Y-47353256D01*
X49001226Y-47164898D01*
X49041000Y-46964939D01*
X49041000Y-46761061D01*
X49001226Y-46561102D01*
X48923205Y-46372744D01*
X48809937Y-46203226D01*
X48665774Y-46059063D01*
X48496256Y-45945795D01*
X48307898Y-45867774D01*
X48107939Y-45828000D01*
X47904061Y-45828000D01*
X47704102Y-45867774D01*
X47515744Y-45945795D01*
X47346226Y-46059063D01*
X47302289Y-46103000D01*
X46519322Y-46103000D01*
X46481999Y-46099324D01*
X46444676Y-46103000D01*
X46444667Y-46103000D01*
X46333014Y-46113997D01*
X46189753Y-46157454D01*
X46057724Y-46228026D01*
X45941999Y-46322999D01*
X45918201Y-46351997D01*
X44573998Y-47696201D01*
X44545000Y-47719999D01*
X44521202Y-47748997D01*
X44521201Y-47748998D01*
X44450026Y-47835724D01*
X44379454Y-47967754D01*
X44361551Y-48026774D01*
X44335998Y-48111014D01*
X44325001Y-48222667D01*
X44321324Y-48260000D01*
X44325001Y-48297332D01*
X44325000Y-59113289D01*
X44281063Y-59157226D01*
X44167795Y-59326744D01*
X44089774Y-59515102D01*
X44050000Y-59715061D01*
X32410000Y-59715061D01*
X32410000Y-45687581D01*
X55220000Y-45687581D01*
X55220000Y-45687582D01*
X55220001Y-95282419D01*
X55222802Y-95310855D01*
X55222747Y-95318682D01*
X55223646Y-95327853D01*
X55249554Y-95574357D01*
X55261589Y-95632986D01*
X55272792Y-95691716D01*
X55275456Y-95700538D01*
X55348751Y-95937314D01*
X55371931Y-95992457D01*
X55394339Y-96047920D01*
X55398665Y-96056054D01*
X55398667Y-96056059D01*
X55398670Y-96056064D01*
X55516553Y-96274086D01*
X55549988Y-96323654D01*
X55582759Y-96373735D01*
X55588584Y-96380876D01*
X55746577Y-96571856D01*
X55789012Y-96613995D01*
X55830875Y-96656745D01*
X55837976Y-96662618D01*
X56030053Y-96819273D01*
X56079875Y-96852374D01*
X56129237Y-96886173D01*
X56137343Y-96890556D01*
X56356191Y-97006919D01*
X56411479Y-97029707D01*
X56466475Y-97053279D01*
X56475278Y-97056003D01*
X56712559Y-97127643D01*
X56771246Y-97139264D01*
X56829752Y-97151700D01*
X56838915Y-97152663D01*
X56838917Y-97152663D01*
X57085595Y-97176850D01*
X57085598Y-97176850D01*
X57117581Y-97180000D01*
X118142419Y-97180000D01*
X118170865Y-97177198D01*
X118178682Y-97177253D01*
X118187853Y-97176354D01*
X118434357Y-97150446D01*
X118492986Y-97138411D01*
X118551716Y-97127208D01*
X118560532Y-97124546D01*
X118560536Y-97124545D01*
X118560539Y-97124544D01*
X118797314Y-97051249D01*
X118852457Y-97028069D01*
X118907920Y-97005661D01*
X118916054Y-97001335D01*
X118916059Y-97001333D01*
X118916064Y-97001330D01*
X119134086Y-96883447D01*
X119183654Y-96850012D01*
X119233735Y-96817241D01*
X119240876Y-96811416D01*
X119431856Y-96653423D01*
X119473995Y-96610988D01*
X119516745Y-96569125D01*
X119522618Y-96562024D01*
X119679273Y-96369947D01*
X119712374Y-96320125D01*
X119746173Y-96270763D01*
X119750556Y-96262657D01*
X119866919Y-96043809D01*
X119889707Y-95988521D01*
X119913279Y-95933525D01*
X119916003Y-95924722D01*
X119987643Y-95687441D01*
X119999264Y-95628754D01*
X120011700Y-95570248D01*
X120012663Y-95561083D01*
X120036850Y-95314405D01*
X120036850Y-95314402D01*
X120040000Y-95282419D01*
X120040000Y-39337581D01*
X120037198Y-39309135D01*
X120037253Y-39301318D01*
X120036354Y-39292147D01*
X120010446Y-39045644D01*
X119998414Y-38987028D01*
X119987208Y-38928284D01*
X119984544Y-38919462D01*
X119911249Y-38682686D01*
X119888074Y-38627555D01*
X119865661Y-38572080D01*
X119861334Y-38563944D01*
X119743446Y-38345914D01*
X119710012Y-38296346D01*
X119677240Y-38246265D01*
X119671416Y-38239124D01*
X119513423Y-38048144D01*
X119470988Y-38006005D01*
X119429125Y-37963255D01*
X119422024Y-37957381D01*
X119229946Y-37800727D01*
X119180169Y-37767655D01*
X119130763Y-37733826D01*
X119122657Y-37729444D01*
X118903809Y-37613081D01*
X118848532Y-37590298D01*
X118793525Y-37566721D01*
X118784722Y-37563997D01*
X118547441Y-37492357D01*
X118488754Y-37480736D01*
X118430248Y-37468300D01*
X118421085Y-37467337D01*
X118421083Y-37467337D01*
X118174405Y-37443150D01*
X118174402Y-37443150D01*
X118142419Y-37440000D01*
X57117581Y-37440000D01*
X57089135Y-37442802D01*
X57081318Y-37442747D01*
X57072147Y-37443646D01*
X56825644Y-37469554D01*
X56767028Y-37481586D01*
X56708284Y-37492792D01*
X56699462Y-37495456D01*
X56462686Y-37568751D01*
X56407555Y-37591926D01*
X56352080Y-37614339D01*
X56343944Y-37618666D01*
X56125914Y-37736554D01*
X56076346Y-37769988D01*
X56026265Y-37802760D01*
X56019124Y-37808584D01*
X55828144Y-37966577D01*
X55786005Y-38009012D01*
X55743255Y-38050875D01*
X55737381Y-38057976D01*
X55580727Y-38250054D01*
X55547655Y-38299831D01*
X55513826Y-38349237D01*
X55509444Y-38357343D01*
X55393081Y-38576191D01*
X55370298Y-38631468D01*
X55346721Y-38686475D01*
X55343997Y-38695278D01*
X55272357Y-38932559D01*
X55260736Y-38991246D01*
X55248300Y-39049752D01*
X55247337Y-39058917D01*
X55223150Y-39305595D01*
X55223150Y-39305608D01*
X55220001Y-39337581D01*
X55220000Y-45687581D01*
X32410000Y-45687581D01*
X32410000Y-34696061D01*
X44050000Y-34696061D01*
X44050000Y-34899939D01*
X44089774Y-35099898D01*
X44167795Y-35288256D01*
X44281063Y-35457774D01*
X44425226Y-35601937D01*
X44594744Y-35715205D01*
X44783102Y-35793226D01*
X44983061Y-35833000D01*
X45045198Y-35833000D01*
X46045205Y-36833008D01*
X46068999Y-36862001D01*
X46097992Y-36885795D01*
X46097996Y-36885799D01*
X46168685Y-36943811D01*
X46184724Y-36956974D01*
X46316753Y-37027546D01*
X46460014Y-37071003D01*
X46571667Y-37082000D01*
X46571676Y-37082000D01*
X46608999Y-37085676D01*
X46646322Y-37082000D01*
X47437199Y-37082000D01*
X49024001Y-38668803D01*
X49024000Y-43873289D01*
X48980063Y-43917226D01*
X48866795Y-44086744D01*
X48788774Y-44275102D01*
X48749000Y-44475061D01*
X48749000Y-44678939D01*
X48788774Y-44878898D01*
X48866795Y-45067256D01*
X48980063Y-45236774D01*
X49124226Y-45380937D01*
X49293744Y-45494205D01*
X49482102Y-45572226D01*
X49682061Y-45612000D01*
X49885939Y-45612000D01*
X50085898Y-45572226D01*
X50274256Y-45494205D01*
X50443774Y-45380937D01*
X50587937Y-45236774D01*
X50701205Y-45067256D01*
X50779226Y-44878898D01*
X50819000Y-44678939D01*
X50819000Y-44475061D01*
X50779226Y-44275102D01*
X50701205Y-44086744D01*
X50587937Y-43917226D01*
X50544000Y-43873289D01*
X50544000Y-38391323D01*
X50547676Y-38354000D01*
X50544000Y-38316677D01*
X50544000Y-38316667D01*
X50533003Y-38205014D01*
X50489546Y-38061753D01*
X50471501Y-38027994D01*
X50418974Y-37929723D01*
X50347799Y-37842997D01*
X50324001Y-37813999D01*
X50295003Y-37790201D01*
X48315804Y-35811003D01*
X48292001Y-35781999D01*
X48176276Y-35687026D01*
X48044247Y-35616454D01*
X47900986Y-35572997D01*
X47789333Y-35562000D01*
X47789322Y-35562000D01*
X47752000Y-35558324D01*
X47714678Y-35562000D01*
X46923803Y-35562000D01*
X46120000Y-34758198D01*
X46120000Y-34696061D01*
X46080226Y-34496102D01*
X46002205Y-34307744D01*
X45888937Y-34138226D01*
X45744774Y-33994063D01*
X45575256Y-33880795D01*
X45386898Y-33802774D01*
X45186939Y-33763000D01*
X44983061Y-33763000D01*
X44783102Y-33802774D01*
X44594744Y-33880795D01*
X44425226Y-33994063D01*
X44281063Y-34138226D01*
X44167795Y-34307744D01*
X44089774Y-34496102D01*
X44050000Y-34696061D01*
X32410000Y-34696061D01*
X32410000Y-29242279D01*
X32424722Y-29092131D01*
X32458953Y-28978754D01*
X32514555Y-28874181D01*
X32589407Y-28782404D01*
X32680664Y-28706909D01*
X32784844Y-28650581D01*
X32897976Y-28615560D01*
X33046022Y-28600000D01*
X129507721Y-28600000D01*
X129657869Y-28614722D01*
G37*
%TD.AperFunction*%
M02*
