%TF.GenerationSoftware,KiCad,Pcbnew,5.1.10*%
%TF.CreationDate,2021-05-09T20:03:51-07:00*%
%TF.ProjectId,ECE148_LED,45434531-3438-45f4-9c45-442e6b696361,rev?*%
%TF.SameCoordinates,Original*%
%TF.FileFunction,Legend,Top*%
%TF.FilePolarity,Positive*%
%FSLAX46Y46*%
G04 Gerber Fmt 4.6, Leading zero omitted, Abs format (unit mm)*
G04 Created by KiCad (PCBNEW 5.1.10) date 2021-05-09 20:03:51*
%MOMM*%
%LPD*%
G01*
G04 APERTURE LIST*
%ADD10C,0.120000*%
%ADD11C,0.150000*%
%ADD12C,0.010000*%
%ADD13R,0.740000X2.400000*%
%ADD14R,1.500000X1.000000*%
%ADD15C,1.600000*%
%ADD16R,1.600000X1.600000*%
%ADD17R,0.650000X1.060000*%
%ADD18O,1.200000X1.750000*%
%ADD19R,1.000000X1.500000*%
G04 APERTURE END LIST*
D10*
X55880000Y-76200000D02*
X55880000Y-88900000D01*
X52324000Y-76200000D02*
X55880000Y-76200000D01*
X52324000Y-88900000D02*
X52324000Y-76200000D01*
D11*
X53967571Y-87915047D02*
X53967571Y-87581714D01*
X54491380Y-87438857D02*
X54491380Y-87915047D01*
X53491380Y-87915047D01*
X53491380Y-87438857D01*
X54396142Y-86438857D02*
X54443761Y-86486476D01*
X54491380Y-86629333D01*
X54491380Y-86724571D01*
X54443761Y-86867428D01*
X54348523Y-86962666D01*
X54253285Y-87010285D01*
X54062809Y-87057904D01*
X53919952Y-87057904D01*
X53729476Y-87010285D01*
X53634238Y-86962666D01*
X53539000Y-86867428D01*
X53491380Y-86724571D01*
X53491380Y-86629333D01*
X53539000Y-86486476D01*
X53586619Y-86438857D01*
X53967571Y-86010285D02*
X53967571Y-85676952D01*
X54491380Y-85534095D02*
X54491380Y-86010285D01*
X53491380Y-86010285D01*
X53491380Y-85534095D01*
X54491380Y-84581714D02*
X54491380Y-85153142D01*
X54491380Y-84867428D02*
X53491380Y-84867428D01*
X53634238Y-84962666D01*
X53729476Y-85057904D01*
X53777095Y-85153142D01*
X53824714Y-83724571D02*
X54491380Y-83724571D01*
X53443761Y-83962666D02*
X54158047Y-84200761D01*
X54158047Y-83581714D01*
X53919952Y-83057904D02*
X53872333Y-83153142D01*
X53824714Y-83200761D01*
X53729476Y-83248380D01*
X53681857Y-83248380D01*
X53586619Y-83200761D01*
X53539000Y-83153142D01*
X53491380Y-83057904D01*
X53491380Y-82867428D01*
X53539000Y-82772190D01*
X53586619Y-82724571D01*
X53681857Y-82676952D01*
X53729476Y-82676952D01*
X53824714Y-82724571D01*
X53872333Y-82772190D01*
X53919952Y-82867428D01*
X53919952Y-83057904D01*
X53967571Y-83153142D01*
X54015190Y-83200761D01*
X54110428Y-83248380D01*
X54300904Y-83248380D01*
X54396142Y-83200761D01*
X54443761Y-83153142D01*
X54491380Y-83057904D01*
X54491380Y-82867428D01*
X54443761Y-82772190D01*
X54396142Y-82724571D01*
X54300904Y-82676952D01*
X54110428Y-82676952D01*
X54015190Y-82724571D01*
X53967571Y-82772190D01*
X53919952Y-82867428D01*
X54110428Y-82248380D02*
X54110428Y-81486476D01*
X53491380Y-81153142D02*
X53491380Y-80581714D01*
X54491380Y-80867428D02*
X53491380Y-80867428D01*
X54443761Y-79867428D02*
X54491380Y-79962666D01*
X54491380Y-80153142D01*
X54443761Y-80248380D01*
X54348523Y-80296000D01*
X53967571Y-80296000D01*
X53872333Y-80248380D01*
X53824714Y-80153142D01*
X53824714Y-79962666D01*
X53872333Y-79867428D01*
X53967571Y-79819809D01*
X54062809Y-79819809D01*
X54158047Y-80296000D01*
X54491380Y-78962666D02*
X53967571Y-78962666D01*
X53872333Y-79010285D01*
X53824714Y-79105523D01*
X53824714Y-79296000D01*
X53872333Y-79391238D01*
X54443761Y-78962666D02*
X54491380Y-79057904D01*
X54491380Y-79296000D01*
X54443761Y-79391238D01*
X54348523Y-79438857D01*
X54253285Y-79438857D01*
X54158047Y-79391238D01*
X54110428Y-79296000D01*
X54110428Y-79057904D01*
X54062809Y-78962666D01*
X54491380Y-78486476D02*
X53824714Y-78486476D01*
X53919952Y-78486476D02*
X53872333Y-78438857D01*
X53824714Y-78343619D01*
X53824714Y-78200761D01*
X53872333Y-78105523D01*
X53967571Y-78057904D01*
X54491380Y-78057904D01*
X53967571Y-78057904D02*
X53872333Y-78010285D01*
X53824714Y-77915047D01*
X53824714Y-77772190D01*
X53872333Y-77676952D01*
X53967571Y-77629333D01*
X54491380Y-77629333D01*
X54491380Y-76629333D02*
X54491380Y-77200761D01*
X54491380Y-76915047D02*
X53491380Y-76915047D01*
X53634238Y-77010285D01*
X53729476Y-77105523D01*
X53777095Y-77200761D01*
D10*
X55880000Y-88900000D02*
X55880000Y-95504000D01*
X52324000Y-88900000D02*
X55880000Y-88900000D01*
X52324000Y-95504000D02*
X52324000Y-88900000D01*
X55880000Y-95504000D02*
X52324000Y-95504000D01*
D11*
X54554380Y-93432142D02*
X54078190Y-93765476D01*
X54554380Y-94003571D02*
X53554380Y-94003571D01*
X53554380Y-93622619D01*
X53602000Y-93527380D01*
X53649619Y-93479761D01*
X53744857Y-93432142D01*
X53887714Y-93432142D01*
X53982952Y-93479761D01*
X54030571Y-93527380D01*
X54078190Y-93622619D01*
X54078190Y-94003571D01*
X54506761Y-92622619D02*
X54554380Y-92717857D01*
X54554380Y-92908333D01*
X54506761Y-93003571D01*
X54411523Y-93051190D01*
X54030571Y-93051190D01*
X53935333Y-93003571D01*
X53887714Y-92908333D01*
X53887714Y-92717857D01*
X53935333Y-92622619D01*
X54030571Y-92575000D01*
X54125809Y-92575000D01*
X54221047Y-93051190D01*
X53887714Y-92241666D02*
X54554380Y-92003571D01*
X53887714Y-91765476D01*
X54554380Y-90098809D02*
X54554380Y-90670238D01*
X54554380Y-90384523D02*
X53554380Y-90384523D01*
X53697238Y-90479761D01*
X53792476Y-90575000D01*
X53840095Y-90670238D01*
D12*
G36*
X53086000Y-45094769D02*
G01*
X53086000Y-45387846D01*
X52519384Y-45387846D01*
X52519384Y-46091231D01*
X52226307Y-46091231D01*
X52226307Y-45094769D01*
X53086000Y-45094769D01*
G37*
X53086000Y-45094769D02*
X53086000Y-45387846D01*
X52519384Y-45387846D01*
X52519384Y-46091231D01*
X52226307Y-46091231D01*
X52226307Y-45094769D01*
X53086000Y-45094769D01*
G36*
X53086000Y-50682769D02*
G01*
X53086000Y-50975846D01*
X52519384Y-50975846D01*
X52519384Y-51659692D01*
X52226307Y-51659692D01*
X52226307Y-50682769D01*
X53086000Y-50682769D01*
G37*
X53086000Y-50682769D02*
X53086000Y-50975846D01*
X52519384Y-50975846D01*
X52519384Y-51659692D01*
X52226307Y-51659692D01*
X52226307Y-50682769D01*
X53086000Y-50682769D01*
G36*
X53203231Y-44508615D02*
G01*
X53203231Y-43824769D01*
X53515846Y-43824769D01*
X53515846Y-44840769D01*
X52226307Y-44840769D01*
X52226307Y-44508615D01*
X53203231Y-44508615D01*
G37*
X53203231Y-44508615D02*
X53203231Y-43824769D01*
X53515846Y-43824769D01*
X53515846Y-44840769D01*
X52226307Y-44840769D01*
X52226307Y-44508615D01*
X53203231Y-44508615D01*
G36*
X53203231Y-50096615D02*
G01*
X53203231Y-49393231D01*
X53515846Y-49393231D01*
X53515846Y-50409231D01*
X52226307Y-50409231D01*
X52226307Y-50096615D01*
X53203231Y-50096615D01*
G37*
X53203231Y-50096615D02*
X53203231Y-49393231D01*
X53515846Y-49393231D01*
X53515846Y-50409231D01*
X52226307Y-50409231D01*
X52226307Y-50096615D01*
X53203231Y-50096615D01*
G36*
X54473231Y-43414462D02*
G01*
X54473231Y-44840769D01*
X54180154Y-44840769D01*
X54180154Y-43707539D01*
X52226307Y-43707539D01*
X52226307Y-43414462D01*
X54473231Y-43414462D01*
G37*
X54473231Y-43414462D02*
X54473231Y-44840769D01*
X54180154Y-44840769D01*
X54180154Y-43707539D01*
X52226307Y-43707539D01*
X52226307Y-43414462D01*
X54473231Y-43414462D01*
G36*
X53203231Y-46188923D02*
G01*
X53203231Y-45094769D01*
X54473231Y-45094769D01*
X54473231Y-45387846D01*
X53515846Y-45387846D01*
X53515846Y-46501539D01*
X52226307Y-46501539D01*
X52226307Y-46188923D01*
X53203231Y-46188923D01*
G37*
X53203231Y-46188923D02*
X53203231Y-45094769D01*
X54473231Y-45094769D01*
X54473231Y-45387846D01*
X53515846Y-45387846D01*
X53515846Y-46501539D01*
X52226307Y-46501539D01*
X52226307Y-46188923D01*
X53203231Y-46188923D01*
G36*
X54473231Y-46188923D02*
G01*
X54473231Y-46501539D01*
X53613538Y-46501539D01*
X53613538Y-46188923D01*
X54473231Y-46188923D01*
G37*
X54473231Y-46188923D02*
X54473231Y-46501539D01*
X53613538Y-46501539D01*
X53613538Y-46188923D01*
X54473231Y-46188923D01*
G36*
X54180154Y-47869231D02*
G01*
X54180154Y-46755539D01*
X54473231Y-46755539D01*
X54473231Y-48181846D01*
X52226307Y-48181846D01*
X52226307Y-47869231D01*
X54180154Y-47869231D01*
G37*
X54180154Y-47869231D02*
X54180154Y-46755539D01*
X54473231Y-46755539D01*
X54473231Y-48181846D01*
X52226307Y-48181846D01*
X52226307Y-47869231D01*
X54180154Y-47869231D01*
G36*
X54473231Y-48416308D02*
G01*
X54473231Y-48748462D01*
X52226307Y-48748462D01*
X52226307Y-48416308D01*
X54473231Y-48416308D01*
G37*
X54473231Y-48416308D02*
X54473231Y-48748462D01*
X52226307Y-48748462D01*
X52226307Y-48416308D01*
X54473231Y-48416308D01*
G36*
X54473231Y-49002462D02*
G01*
X54473231Y-50409231D01*
X54180154Y-50409231D01*
X54180154Y-49295539D01*
X52226307Y-49295539D01*
X52226307Y-49002462D01*
X54473231Y-49002462D01*
G37*
X54473231Y-49002462D02*
X54473231Y-50409231D01*
X54180154Y-50409231D01*
X54180154Y-49295539D01*
X52226307Y-49295539D01*
X52226307Y-49002462D01*
X54473231Y-49002462D01*
G36*
X53203231Y-51776923D02*
G01*
X53203231Y-50682769D01*
X54473231Y-50682769D01*
X54473231Y-50975846D01*
X53515846Y-50975846D01*
X53515846Y-52089539D01*
X52226307Y-52089539D01*
X52226307Y-51776923D01*
X53203231Y-51776923D01*
G37*
X53203231Y-51776923D02*
X53203231Y-50682769D01*
X54473231Y-50682769D01*
X54473231Y-50975846D01*
X53515846Y-50975846D01*
X53515846Y-52089539D01*
X52226307Y-52089539D01*
X52226307Y-51776923D01*
X53203231Y-51776923D01*
G36*
X54473231Y-51776923D02*
G01*
X54473231Y-52089539D01*
X53613538Y-52089539D01*
X53613538Y-51776923D01*
X54473231Y-51776923D01*
G37*
X54473231Y-51776923D02*
X54473231Y-52089539D01*
X53613538Y-52089539D01*
X53613538Y-51776923D01*
X54473231Y-51776923D01*
G36*
X55020307Y-42867385D02*
G01*
X55020307Y-52636615D01*
X51972307Y-52636615D01*
X51972307Y-52343539D01*
X54727231Y-52343539D01*
X54727231Y-43160462D01*
X51972307Y-43160462D01*
X51972307Y-52343539D01*
X51972307Y-52636615D01*
X51679231Y-52636615D01*
X51679231Y-42867385D01*
X55020307Y-42867385D01*
G37*
X55020307Y-42867385D02*
X55020307Y-52636615D01*
X51972307Y-52636615D01*
X51972307Y-52343539D01*
X54727231Y-52343539D01*
X54727231Y-43160462D01*
X51972307Y-43160462D01*
X51972307Y-52343539D01*
X51972307Y-52636615D01*
X51679231Y-52636615D01*
X51679231Y-42867385D01*
X55020307Y-42867385D01*
D10*
X44592000Y-55572000D02*
X44142000Y-55572000D01*
X44142000Y-55572000D02*
X44142000Y-56022000D01*
X50912000Y-55572000D02*
X51362000Y-55572000D01*
X51362000Y-55572000D02*
X51362000Y-56022000D01*
X44592000Y-62792000D02*
X44142000Y-62792000D01*
X44142000Y-62792000D02*
X44142000Y-62342000D01*
X50912000Y-62792000D02*
X51362000Y-62792000D01*
X51362000Y-62792000D02*
X51362000Y-62342000D01*
X51362000Y-62342000D02*
X52652000Y-62342000D01*
X48955000Y-41161000D02*
X48955000Y-44691000D01*
X42485000Y-41161000D02*
X42485000Y-44691000D01*
X48890000Y-39836000D02*
X48890000Y-41161000D01*
X48955000Y-41161000D02*
X48890000Y-41161000D01*
X48955000Y-44691000D02*
X48890000Y-44691000D01*
X42550000Y-41161000D02*
X42485000Y-41161000D01*
X42550000Y-44691000D02*
X42485000Y-44691000D01*
X90518000Y-105620000D02*
X90518000Y-104470000D01*
X83218000Y-105620000D02*
X90518000Y-105620000D01*
X83218000Y-100120000D02*
X90518000Y-100120000D01*
X104234000Y-105620000D02*
X104234000Y-104470000D01*
X96934000Y-105620000D02*
X104234000Y-105620000D01*
X96934000Y-100120000D02*
X104234000Y-100120000D01*
X76802000Y-105620000D02*
X76802000Y-104470000D01*
X69502000Y-105620000D02*
X76802000Y-105620000D01*
X69502000Y-100120000D02*
X76802000Y-100120000D01*
X36525580Y-70360000D02*
X36244420Y-70360000D01*
X36525580Y-69340000D02*
X36244420Y-69340000D01*
X55120000Y-101904420D02*
X55120000Y-102185580D01*
X54100000Y-101904420D02*
X54100000Y-102185580D01*
X109730000Y-101904420D02*
X109730000Y-102185580D01*
X108710000Y-101904420D02*
X108710000Y-102185580D01*
X126034420Y-65530000D02*
X126315580Y-65530000D01*
X126034420Y-66550000D02*
X126315580Y-66550000D01*
X104900000Y-33985580D02*
X104900000Y-33704420D01*
X105920000Y-33985580D02*
X105920000Y-33704420D01*
X48705000Y-87630000D02*
G75*
G03*
X48705000Y-87630000I-2620000J0D01*
G01*
X46085000Y-88670000D02*
X46085000Y-90210000D01*
X46085000Y-85050000D02*
X46085000Y-86590000D01*
X46125000Y-88670000D02*
X46125000Y-90210000D01*
X46125000Y-85050000D02*
X46125000Y-86590000D01*
X46165000Y-85051000D02*
X46165000Y-86590000D01*
X46165000Y-88670000D02*
X46165000Y-90209000D01*
X46205000Y-85052000D02*
X46205000Y-86590000D01*
X46205000Y-88670000D02*
X46205000Y-90208000D01*
X46245000Y-85054000D02*
X46245000Y-86590000D01*
X46245000Y-88670000D02*
X46245000Y-90206000D01*
X46285000Y-85057000D02*
X46285000Y-86590000D01*
X46285000Y-88670000D02*
X46285000Y-90203000D01*
X46325000Y-85061000D02*
X46325000Y-86590000D01*
X46325000Y-88670000D02*
X46325000Y-90199000D01*
X46365000Y-85065000D02*
X46365000Y-86590000D01*
X46365000Y-88670000D02*
X46365000Y-90195000D01*
X46405000Y-85069000D02*
X46405000Y-86590000D01*
X46405000Y-88670000D02*
X46405000Y-90191000D01*
X46445000Y-85074000D02*
X46445000Y-86590000D01*
X46445000Y-88670000D02*
X46445000Y-90186000D01*
X46485000Y-85080000D02*
X46485000Y-86590000D01*
X46485000Y-88670000D02*
X46485000Y-90180000D01*
X46525000Y-85087000D02*
X46525000Y-86590000D01*
X46525000Y-88670000D02*
X46525000Y-90173000D01*
X46565000Y-85094000D02*
X46565000Y-86590000D01*
X46565000Y-88670000D02*
X46565000Y-90166000D01*
X46605000Y-85102000D02*
X46605000Y-86590000D01*
X46605000Y-88670000D02*
X46605000Y-90158000D01*
X46645000Y-85110000D02*
X46645000Y-86590000D01*
X46645000Y-88670000D02*
X46645000Y-90150000D01*
X46685000Y-85119000D02*
X46685000Y-86590000D01*
X46685000Y-88670000D02*
X46685000Y-90141000D01*
X46725000Y-85129000D02*
X46725000Y-86590000D01*
X46725000Y-88670000D02*
X46725000Y-90131000D01*
X46765000Y-85139000D02*
X46765000Y-86590000D01*
X46765000Y-88670000D02*
X46765000Y-90121000D01*
X46806000Y-85150000D02*
X46806000Y-86590000D01*
X46806000Y-88670000D02*
X46806000Y-90110000D01*
X46846000Y-85162000D02*
X46846000Y-86590000D01*
X46846000Y-88670000D02*
X46846000Y-90098000D01*
X46886000Y-85175000D02*
X46886000Y-86590000D01*
X46886000Y-88670000D02*
X46886000Y-90085000D01*
X46926000Y-85188000D02*
X46926000Y-86590000D01*
X46926000Y-88670000D02*
X46926000Y-90072000D01*
X46966000Y-85202000D02*
X46966000Y-86590000D01*
X46966000Y-88670000D02*
X46966000Y-90058000D01*
X47006000Y-85216000D02*
X47006000Y-86590000D01*
X47006000Y-88670000D02*
X47006000Y-90044000D01*
X47046000Y-85232000D02*
X47046000Y-86590000D01*
X47046000Y-88670000D02*
X47046000Y-90028000D01*
X47086000Y-85248000D02*
X47086000Y-86590000D01*
X47086000Y-88670000D02*
X47086000Y-90012000D01*
X47126000Y-85265000D02*
X47126000Y-86590000D01*
X47126000Y-88670000D02*
X47126000Y-89995000D01*
X47166000Y-85282000D02*
X47166000Y-86590000D01*
X47166000Y-88670000D02*
X47166000Y-89978000D01*
X47206000Y-85301000D02*
X47206000Y-86590000D01*
X47206000Y-88670000D02*
X47206000Y-89959000D01*
X47246000Y-85320000D02*
X47246000Y-86590000D01*
X47246000Y-88670000D02*
X47246000Y-89940000D01*
X47286000Y-85340000D02*
X47286000Y-86590000D01*
X47286000Y-88670000D02*
X47286000Y-89920000D01*
X47326000Y-85362000D02*
X47326000Y-86590000D01*
X47326000Y-88670000D02*
X47326000Y-89898000D01*
X47366000Y-85383000D02*
X47366000Y-86590000D01*
X47366000Y-88670000D02*
X47366000Y-89877000D01*
X47406000Y-85406000D02*
X47406000Y-86590000D01*
X47406000Y-88670000D02*
X47406000Y-89854000D01*
X47446000Y-85430000D02*
X47446000Y-86590000D01*
X47446000Y-88670000D02*
X47446000Y-89830000D01*
X47486000Y-85455000D02*
X47486000Y-86590000D01*
X47486000Y-88670000D02*
X47486000Y-89805000D01*
X47526000Y-85481000D02*
X47526000Y-86590000D01*
X47526000Y-88670000D02*
X47526000Y-89779000D01*
X47566000Y-85508000D02*
X47566000Y-86590000D01*
X47566000Y-88670000D02*
X47566000Y-89752000D01*
X47606000Y-85535000D02*
X47606000Y-86590000D01*
X47606000Y-88670000D02*
X47606000Y-89725000D01*
X47646000Y-85565000D02*
X47646000Y-86590000D01*
X47646000Y-88670000D02*
X47646000Y-89695000D01*
X47686000Y-85595000D02*
X47686000Y-86590000D01*
X47686000Y-88670000D02*
X47686000Y-89665000D01*
X47726000Y-85626000D02*
X47726000Y-86590000D01*
X47726000Y-88670000D02*
X47726000Y-89634000D01*
X47766000Y-85659000D02*
X47766000Y-86590000D01*
X47766000Y-88670000D02*
X47766000Y-89601000D01*
X47806000Y-85693000D02*
X47806000Y-86590000D01*
X47806000Y-88670000D02*
X47806000Y-89567000D01*
X47846000Y-85729000D02*
X47846000Y-86590000D01*
X47846000Y-88670000D02*
X47846000Y-89531000D01*
X47886000Y-85766000D02*
X47886000Y-86590000D01*
X47886000Y-88670000D02*
X47886000Y-89494000D01*
X47926000Y-85804000D02*
X47926000Y-86590000D01*
X47926000Y-88670000D02*
X47926000Y-89456000D01*
X47966000Y-85845000D02*
X47966000Y-86590000D01*
X47966000Y-88670000D02*
X47966000Y-89415000D01*
X48006000Y-85887000D02*
X48006000Y-86590000D01*
X48006000Y-88670000D02*
X48006000Y-89373000D01*
X48046000Y-85931000D02*
X48046000Y-86590000D01*
X48046000Y-88670000D02*
X48046000Y-89329000D01*
X48086000Y-85977000D02*
X48086000Y-86590000D01*
X48086000Y-88670000D02*
X48086000Y-89283000D01*
X48126000Y-86025000D02*
X48126000Y-89235000D01*
X48166000Y-86076000D02*
X48166000Y-89184000D01*
X48206000Y-86130000D02*
X48206000Y-89130000D01*
X48246000Y-86187000D02*
X48246000Y-89073000D01*
X48286000Y-86247000D02*
X48286000Y-89013000D01*
X48326000Y-86311000D02*
X48326000Y-88949000D01*
X48366000Y-86379000D02*
X48366000Y-88881000D01*
X48406000Y-86452000D02*
X48406000Y-88808000D01*
X48446000Y-86532000D02*
X48446000Y-88728000D01*
X48486000Y-86619000D02*
X48486000Y-88641000D01*
X48526000Y-86715000D02*
X48526000Y-88545000D01*
X48566000Y-86825000D02*
X48566000Y-88435000D01*
X48606000Y-86953000D02*
X48606000Y-88307000D01*
X48646000Y-87112000D02*
X48646000Y-88148000D01*
X48686000Y-87346000D02*
X48686000Y-87914000D01*
X43280225Y-86155000D02*
X43780225Y-86155000D01*
X43530225Y-85905000D02*
X43530225Y-86405000D01*
X50290000Y-33985580D02*
X50290000Y-33704420D01*
X51310000Y-33985580D02*
X51310000Y-33704420D01*
X46568000Y-82180000D02*
X46568000Y-80380000D01*
X43348000Y-80380000D02*
X43348000Y-82830000D01*
X42686500Y-71136742D02*
X42686500Y-71611258D01*
X41641500Y-71136742D02*
X41641500Y-71611258D01*
X47979500Y-67039258D02*
X47979500Y-66564742D01*
X49024500Y-67039258D02*
X49024500Y-66564742D01*
X43025000Y-91535000D02*
X43025000Y-96255000D01*
X43025000Y-96255000D02*
X49145000Y-96255000D01*
X49145000Y-96255000D02*
X49145000Y-91535000D01*
X49145000Y-91535000D02*
X43025000Y-91535000D01*
X44785000Y-91535000D02*
X44785000Y-91335000D01*
X44785000Y-91335000D02*
X44485000Y-91335000D01*
X44485000Y-91335000D02*
X44485000Y-91535000D01*
X44785000Y-91435000D02*
X44485000Y-91435000D01*
X45585000Y-91535000D02*
X45585000Y-92145000D01*
X45585000Y-92145000D02*
X43635000Y-92145000D01*
X43635000Y-92145000D02*
X43635000Y-95645000D01*
X43635000Y-95645000D02*
X48535000Y-95645000D01*
X48535000Y-95645000D02*
X48535000Y-92145000D01*
X48535000Y-92145000D02*
X46585000Y-92145000D01*
X46585000Y-92145000D02*
X46585000Y-91535000D01*
X43025000Y-92845000D02*
X43635000Y-92845000D01*
X43025000Y-94145000D02*
X43635000Y-94145000D01*
X49145000Y-92845000D02*
X48535000Y-92845000D01*
X49145000Y-94145000D02*
X48535000Y-94145000D01*
X45985000Y-95645000D02*
X45985000Y-95145000D01*
X45985000Y-95145000D02*
X46185000Y-95145000D01*
X46185000Y-95145000D02*
X46185000Y-95645000D01*
X46085000Y-95645000D02*
X46085000Y-95145000D01*
X43975000Y-91235000D02*
X42725000Y-91235000D01*
X42725000Y-91235000D02*
X42725000Y-92485000D01*
X45664000Y-72394000D02*
X45664000Y-69709000D01*
X45664000Y-69709000D02*
X43744000Y-69709000D01*
X43744000Y-69709000D02*
X43744000Y-72394000D01*
X42674000Y-64629420D02*
X42674000Y-64910580D01*
X41654000Y-64629420D02*
X41654000Y-64910580D01*
X45636420Y-51814000D02*
X45917580Y-51814000D01*
X45636420Y-52834000D02*
X45917580Y-52834000D01*
X51012000Y-66661420D02*
X51012000Y-66942580D01*
X49992000Y-66661420D02*
X49992000Y-66942580D01*
X53088000Y-66661420D02*
X53088000Y-66942580D01*
X52068000Y-66661420D02*
X52068000Y-66942580D01*
X46542420Y-74928000D02*
X46823580Y-74928000D01*
X46542420Y-75948000D02*
X46823580Y-75948000D01*
X46542420Y-77214000D02*
X46823580Y-77214000D01*
X46542420Y-78234000D02*
X46823580Y-78234000D01*
X43692580Y-49278000D02*
X43411420Y-49278000D01*
X43692580Y-48258000D02*
X43411420Y-48258000D01*
X117950000Y-105620000D02*
X117950000Y-104470000D01*
X110650000Y-105620000D02*
X117950000Y-105620000D01*
X110650000Y-100120000D02*
X117950000Y-100120000D01*
X63086000Y-105620000D02*
X63086000Y-104470000D01*
X55786000Y-105620000D02*
X63086000Y-105620000D01*
X55786000Y-100120000D02*
X63086000Y-100120000D01*
X49370000Y-105620000D02*
X49370000Y-104470000D01*
X42070000Y-105620000D02*
X49370000Y-105620000D01*
X42070000Y-100120000D02*
X49370000Y-100120000D01*
X32810000Y-106520000D02*
X33960000Y-106520000D01*
X32810000Y-99220000D02*
X32810000Y-106520000D01*
X38310000Y-99220000D02*
X38310000Y-106520000D01*
X129750000Y-99220000D02*
X128600000Y-99220000D01*
X129750000Y-106520000D02*
X129750000Y-99220000D01*
X124250000Y-106520000D02*
X124250000Y-99220000D01*
X32810000Y-92550000D02*
X33960000Y-92550000D01*
X32810000Y-85250000D02*
X32810000Y-92550000D01*
X38310000Y-85250000D02*
X38310000Y-92550000D01*
X129750000Y-85250000D02*
X128600000Y-85250000D01*
X129750000Y-92550000D02*
X129750000Y-85250000D01*
X124250000Y-92550000D02*
X124250000Y-85250000D01*
X32810000Y-78580000D02*
X33960000Y-78580000D01*
X32810000Y-71280000D02*
X32810000Y-78580000D01*
X38310000Y-71280000D02*
X38310000Y-78580000D01*
X129750000Y-71280000D02*
X128600000Y-71280000D01*
X129750000Y-78580000D02*
X129750000Y-71280000D01*
X124250000Y-78580000D02*
X124250000Y-71280000D01*
X32810000Y-64610000D02*
X33960000Y-64610000D01*
X32810000Y-57310000D02*
X32810000Y-64610000D01*
X38310000Y-57310000D02*
X38310000Y-64610000D01*
X129750000Y-57310000D02*
X128600000Y-57310000D01*
X129750000Y-64610000D02*
X129750000Y-57310000D01*
X124250000Y-64610000D02*
X124250000Y-57310000D01*
X32810000Y-50640000D02*
X33960000Y-50640000D01*
X32810000Y-43340000D02*
X32810000Y-50640000D01*
X38310000Y-43340000D02*
X38310000Y-50640000D01*
X129750000Y-43340000D02*
X128600000Y-43340000D01*
X129750000Y-50640000D02*
X129750000Y-43340000D01*
X124250000Y-50640000D02*
X124250000Y-43340000D01*
X32810000Y-36670000D02*
X33960000Y-36670000D01*
X32810000Y-29370000D02*
X32810000Y-36670000D01*
X38310000Y-29370000D02*
X38310000Y-36670000D01*
X129750000Y-29370000D02*
X128600000Y-29370000D01*
X129750000Y-36670000D02*
X129750000Y-29370000D01*
X124250000Y-36670000D02*
X124250000Y-29370000D01*
X110650000Y-30270000D02*
X110650000Y-31420000D01*
X117950000Y-30270000D02*
X110650000Y-30270000D01*
X117950000Y-35770000D02*
X110650000Y-35770000D01*
X96934000Y-30270000D02*
X96934000Y-31420000D01*
X104234000Y-30270000D02*
X96934000Y-30270000D01*
X104234000Y-35770000D02*
X96934000Y-35770000D01*
X83218000Y-30270000D02*
X83218000Y-31420000D01*
X90518000Y-30270000D02*
X83218000Y-30270000D01*
X90518000Y-35770000D02*
X83218000Y-35770000D01*
X69502000Y-30270000D02*
X69502000Y-31420000D01*
X76802000Y-30270000D02*
X69502000Y-30270000D01*
X76802000Y-35770000D02*
X69502000Y-35770000D01*
X55786000Y-30270000D02*
X55786000Y-31420000D01*
X63086000Y-30270000D02*
X55786000Y-30270000D01*
X63086000Y-35770000D02*
X55786000Y-35770000D01*
X42070000Y-30270000D02*
X42070000Y-31420000D01*
X49370000Y-30270000D02*
X42070000Y-30270000D01*
X49370000Y-35770000D02*
X42070000Y-35770000D01*
D11*
X42037095Y-53935380D02*
X42037095Y-54744904D01*
X42084714Y-54840142D01*
X42132333Y-54887761D01*
X42227571Y-54935380D01*
X42418047Y-54935380D01*
X42513285Y-54887761D01*
X42560904Y-54840142D01*
X42608523Y-54744904D01*
X42608523Y-53935380D01*
X43037095Y-54030619D02*
X43084714Y-53983000D01*
X43179952Y-53935380D01*
X43418047Y-53935380D01*
X43513285Y-53983000D01*
X43560904Y-54030619D01*
X43608523Y-54125857D01*
X43608523Y-54221095D01*
X43560904Y-54363952D01*
X42989476Y-54935380D01*
X43608523Y-54935380D01*
X49407380Y-43259333D02*
X50121666Y-43259333D01*
X50264523Y-43306952D01*
X50359761Y-43402190D01*
X50407380Y-43545047D01*
X50407380Y-43640285D01*
X49502619Y-42830761D02*
X49455000Y-42783142D01*
X49407380Y-42687904D01*
X49407380Y-42449809D01*
X49455000Y-42354571D01*
X49502619Y-42306952D01*
X49597857Y-42259333D01*
X49693095Y-42259333D01*
X49835952Y-42306952D01*
X50407380Y-42878380D01*
X50407380Y-42259333D01*
X85653714Y-106934380D02*
X85653714Y-105934380D01*
X85891809Y-105934380D01*
X86034666Y-105982000D01*
X86129904Y-106077238D01*
X86177523Y-106172476D01*
X86225142Y-106362952D01*
X86225142Y-106505809D01*
X86177523Y-106696285D01*
X86129904Y-106791523D01*
X86034666Y-106886761D01*
X85891809Y-106934380D01*
X85653714Y-106934380D01*
X86558476Y-105934380D02*
X87177523Y-105934380D01*
X86844190Y-106315333D01*
X86987047Y-106315333D01*
X87082285Y-106362952D01*
X87129904Y-106410571D01*
X87177523Y-106505809D01*
X87177523Y-106743904D01*
X87129904Y-106839142D01*
X87082285Y-106886761D01*
X86987047Y-106934380D01*
X86701333Y-106934380D01*
X86606095Y-106886761D01*
X86558476Y-106839142D01*
X88034666Y-106267714D02*
X88034666Y-106934380D01*
X87796571Y-105886761D02*
X87558476Y-106601047D01*
X88177523Y-106601047D01*
X83003714Y-101722380D02*
X82432285Y-101722380D01*
X82718000Y-101722380D02*
X82718000Y-100722380D01*
X82622761Y-100865238D01*
X82527523Y-100960476D01*
X82432285Y-101008095D01*
X99369714Y-106934380D02*
X99369714Y-105934380D01*
X99607809Y-105934380D01*
X99750666Y-105982000D01*
X99845904Y-106077238D01*
X99893523Y-106172476D01*
X99941142Y-106362952D01*
X99941142Y-106505809D01*
X99893523Y-106696285D01*
X99845904Y-106791523D01*
X99750666Y-106886761D01*
X99607809Y-106934380D01*
X99369714Y-106934380D01*
X100274476Y-105934380D02*
X100893523Y-105934380D01*
X100560190Y-106315333D01*
X100703047Y-106315333D01*
X100798285Y-106362952D01*
X100845904Y-106410571D01*
X100893523Y-106505809D01*
X100893523Y-106743904D01*
X100845904Y-106839142D01*
X100798285Y-106886761D01*
X100703047Y-106934380D01*
X100417333Y-106934380D01*
X100322095Y-106886761D01*
X100274476Y-106839142D01*
X101798285Y-105934380D02*
X101322095Y-105934380D01*
X101274476Y-106410571D01*
X101322095Y-106362952D01*
X101417333Y-106315333D01*
X101655428Y-106315333D01*
X101750666Y-106362952D01*
X101798285Y-106410571D01*
X101845904Y-106505809D01*
X101845904Y-106743904D01*
X101798285Y-106839142D01*
X101750666Y-106886761D01*
X101655428Y-106934380D01*
X101417333Y-106934380D01*
X101322095Y-106886761D01*
X101274476Y-106839142D01*
X96719714Y-101722380D02*
X96148285Y-101722380D01*
X96434000Y-101722380D02*
X96434000Y-100722380D01*
X96338761Y-100865238D01*
X96243523Y-100960476D01*
X96148285Y-101008095D01*
X71937714Y-106934380D02*
X71937714Y-105934380D01*
X72175809Y-105934380D01*
X72318666Y-105982000D01*
X72413904Y-106077238D01*
X72461523Y-106172476D01*
X72509142Y-106362952D01*
X72509142Y-106505809D01*
X72461523Y-106696285D01*
X72413904Y-106791523D01*
X72318666Y-106886761D01*
X72175809Y-106934380D01*
X71937714Y-106934380D01*
X72842476Y-105934380D02*
X73461523Y-105934380D01*
X73128190Y-106315333D01*
X73271047Y-106315333D01*
X73366285Y-106362952D01*
X73413904Y-106410571D01*
X73461523Y-106505809D01*
X73461523Y-106743904D01*
X73413904Y-106839142D01*
X73366285Y-106886761D01*
X73271047Y-106934380D01*
X72985333Y-106934380D01*
X72890095Y-106886761D01*
X72842476Y-106839142D01*
X73794857Y-105934380D02*
X74413904Y-105934380D01*
X74080571Y-106315333D01*
X74223428Y-106315333D01*
X74318666Y-106362952D01*
X74366285Y-106410571D01*
X74413904Y-106505809D01*
X74413904Y-106743904D01*
X74366285Y-106839142D01*
X74318666Y-106886761D01*
X74223428Y-106934380D01*
X73937714Y-106934380D01*
X73842476Y-106886761D01*
X73794857Y-106839142D01*
X69287714Y-101722380D02*
X68716285Y-101722380D01*
X69002000Y-101722380D02*
X69002000Y-100722380D01*
X68906761Y-100865238D01*
X68811523Y-100960476D01*
X68716285Y-101008095D01*
X36822142Y-68302142D02*
X36774523Y-68349761D01*
X36631666Y-68397380D01*
X36536428Y-68397380D01*
X36393571Y-68349761D01*
X36298333Y-68254523D01*
X36250714Y-68159285D01*
X36203095Y-67968809D01*
X36203095Y-67825952D01*
X36250714Y-67635476D01*
X36298333Y-67540238D01*
X36393571Y-67445000D01*
X36536428Y-67397380D01*
X36631666Y-67397380D01*
X36774523Y-67445000D01*
X36822142Y-67492619D01*
X37774523Y-68397380D02*
X37203095Y-68397380D01*
X37488809Y-68397380D02*
X37488809Y-67397380D01*
X37393571Y-67540238D01*
X37298333Y-67635476D01*
X37203095Y-67683095D01*
X38631666Y-67730714D02*
X38631666Y-68397380D01*
X38393571Y-67349761D02*
X38155476Y-68064047D01*
X38774523Y-68064047D01*
X53205142Y-105005142D02*
X53157523Y-105052761D01*
X53014666Y-105100380D01*
X52919428Y-105100380D01*
X52776571Y-105052761D01*
X52681333Y-104957523D01*
X52633714Y-104862285D01*
X52586095Y-104671809D01*
X52586095Y-104528952D01*
X52633714Y-104338476D01*
X52681333Y-104243238D01*
X52776571Y-104148000D01*
X52919428Y-104100380D01*
X53014666Y-104100380D01*
X53157523Y-104148000D01*
X53205142Y-104195619D01*
X54157523Y-105100380D02*
X53586095Y-105100380D01*
X53871809Y-105100380D02*
X53871809Y-104100380D01*
X53776571Y-104243238D01*
X53681333Y-104338476D01*
X53586095Y-104386095D01*
X54490857Y-104100380D02*
X55109904Y-104100380D01*
X54776571Y-104481333D01*
X54919428Y-104481333D01*
X55014666Y-104528952D01*
X55062285Y-104576571D01*
X55109904Y-104671809D01*
X55109904Y-104909904D01*
X55062285Y-105005142D01*
X55014666Y-105052761D01*
X54919428Y-105100380D01*
X54633714Y-105100380D01*
X54538476Y-105052761D01*
X54490857Y-105005142D01*
X107561142Y-105005142D02*
X107513523Y-105052761D01*
X107370666Y-105100380D01*
X107275428Y-105100380D01*
X107132571Y-105052761D01*
X107037333Y-104957523D01*
X106989714Y-104862285D01*
X106942095Y-104671809D01*
X106942095Y-104528952D01*
X106989714Y-104338476D01*
X107037333Y-104243238D01*
X107132571Y-104148000D01*
X107275428Y-104100380D01*
X107370666Y-104100380D01*
X107513523Y-104148000D01*
X107561142Y-104195619D01*
X108513523Y-105100380D02*
X107942095Y-105100380D01*
X108227809Y-105100380D02*
X108227809Y-104100380D01*
X108132571Y-104243238D01*
X108037333Y-104338476D01*
X107942095Y-104386095D01*
X108894476Y-104195619D02*
X108942095Y-104148000D01*
X109037333Y-104100380D01*
X109275428Y-104100380D01*
X109370666Y-104148000D01*
X109418285Y-104195619D01*
X109465904Y-104290857D01*
X109465904Y-104386095D01*
X109418285Y-104528952D01*
X108846857Y-105100380D01*
X109465904Y-105100380D01*
X122497142Y-66397142D02*
X122449523Y-66444761D01*
X122306666Y-66492380D01*
X122211428Y-66492380D01*
X122068571Y-66444761D01*
X121973333Y-66349523D01*
X121925714Y-66254285D01*
X121878095Y-66063809D01*
X121878095Y-65920952D01*
X121925714Y-65730476D01*
X121973333Y-65635238D01*
X122068571Y-65540000D01*
X122211428Y-65492380D01*
X122306666Y-65492380D01*
X122449523Y-65540000D01*
X122497142Y-65587619D01*
X123449523Y-66492380D02*
X122878095Y-66492380D01*
X123163809Y-66492380D02*
X123163809Y-65492380D01*
X123068571Y-65635238D01*
X122973333Y-65730476D01*
X122878095Y-65778095D01*
X124401904Y-66492380D02*
X123830476Y-66492380D01*
X124116190Y-66492380D02*
X124116190Y-65492380D01*
X124020952Y-65635238D01*
X123925714Y-65730476D01*
X123830476Y-65778095D01*
X105402142Y-37237142D02*
X105354523Y-37284761D01*
X105211666Y-37332380D01*
X105116428Y-37332380D01*
X104973571Y-37284761D01*
X104878333Y-37189523D01*
X104830714Y-37094285D01*
X104783095Y-36903809D01*
X104783095Y-36760952D01*
X104830714Y-36570476D01*
X104878333Y-36475238D01*
X104973571Y-36380000D01*
X105116428Y-36332380D01*
X105211666Y-36332380D01*
X105354523Y-36380000D01*
X105402142Y-36427619D01*
X106354523Y-37332380D02*
X105783095Y-37332380D01*
X106068809Y-37332380D02*
X106068809Y-36332380D01*
X105973571Y-36475238D01*
X105878333Y-36570476D01*
X105783095Y-36618095D01*
X106973571Y-36332380D02*
X107068809Y-36332380D01*
X107164047Y-36380000D01*
X107211666Y-36427619D01*
X107259285Y-36522857D01*
X107306904Y-36713333D01*
X107306904Y-36951428D01*
X107259285Y-37141904D01*
X107211666Y-37237142D01*
X107164047Y-37284761D01*
X107068809Y-37332380D01*
X106973571Y-37332380D01*
X106878333Y-37284761D01*
X106830714Y-37237142D01*
X106783095Y-37141904D01*
X106735476Y-36951428D01*
X106735476Y-36713333D01*
X106783095Y-36522857D01*
X106830714Y-36427619D01*
X106878333Y-36380000D01*
X106973571Y-36332380D01*
X49998333Y-87987142D02*
X49950714Y-88034761D01*
X49807857Y-88082380D01*
X49712619Y-88082380D01*
X49569761Y-88034761D01*
X49474523Y-87939523D01*
X49426904Y-87844285D01*
X49379285Y-87653809D01*
X49379285Y-87510952D01*
X49426904Y-87320476D01*
X49474523Y-87225238D01*
X49569761Y-87130000D01*
X49712619Y-87082380D01*
X49807857Y-87082380D01*
X49950714Y-87130000D01*
X49998333Y-87177619D01*
X50379285Y-87177619D02*
X50426904Y-87130000D01*
X50522142Y-87082380D01*
X50760238Y-87082380D01*
X50855476Y-87130000D01*
X50903095Y-87177619D01*
X50950714Y-87272857D01*
X50950714Y-87368095D01*
X50903095Y-87510952D01*
X50331666Y-88082380D01*
X50950714Y-88082380D01*
X50633333Y-36742142D02*
X50585714Y-36789761D01*
X50442857Y-36837380D01*
X50347619Y-36837380D01*
X50204761Y-36789761D01*
X50109523Y-36694523D01*
X50061904Y-36599285D01*
X50014285Y-36408809D01*
X50014285Y-36265952D01*
X50061904Y-36075476D01*
X50109523Y-35980238D01*
X50204761Y-35885000D01*
X50347619Y-35837380D01*
X50442857Y-35837380D01*
X50585714Y-35885000D01*
X50633333Y-35932619D01*
X51109523Y-36837380D02*
X51300000Y-36837380D01*
X51395238Y-36789761D01*
X51442857Y-36742142D01*
X51538095Y-36599285D01*
X51585714Y-36408809D01*
X51585714Y-36027857D01*
X51538095Y-35932619D01*
X51490476Y-35885000D01*
X51395238Y-35837380D01*
X51204761Y-35837380D01*
X51109523Y-35885000D01*
X51061904Y-35932619D01*
X51014285Y-36027857D01*
X51014285Y-36265952D01*
X51061904Y-36361190D01*
X51109523Y-36408809D01*
X51204761Y-36456428D01*
X51395238Y-36456428D01*
X51490476Y-36408809D01*
X51538095Y-36361190D01*
X51585714Y-36265952D01*
X41510380Y-82041904D02*
X42319904Y-82041904D01*
X42415142Y-81994285D01*
X42462761Y-81946666D01*
X42510380Y-81851428D01*
X42510380Y-81660952D01*
X42462761Y-81565714D01*
X42415142Y-81518095D01*
X42319904Y-81470476D01*
X41510380Y-81470476D01*
X42510380Y-80470476D02*
X42510380Y-81041904D01*
X42510380Y-80756190D02*
X41510380Y-80756190D01*
X41653238Y-80851428D01*
X41748476Y-80946666D01*
X41796095Y-81041904D01*
X41997333Y-69667380D02*
X41664000Y-69191190D01*
X41425904Y-69667380D02*
X41425904Y-68667380D01*
X41806857Y-68667380D01*
X41902095Y-68715000D01*
X41949714Y-68762619D01*
X41997333Y-68857857D01*
X41997333Y-69000714D01*
X41949714Y-69095952D01*
X41902095Y-69143571D01*
X41806857Y-69191190D01*
X41425904Y-69191190D01*
X42378285Y-68762619D02*
X42425904Y-68715000D01*
X42521142Y-68667380D01*
X42759238Y-68667380D01*
X42854476Y-68715000D01*
X42902095Y-68762619D01*
X42949714Y-68857857D01*
X42949714Y-68953095D01*
X42902095Y-69095952D01*
X42330666Y-69667380D01*
X42949714Y-69667380D01*
X48839380Y-71159666D02*
X48363190Y-71493000D01*
X48839380Y-71731095D02*
X47839380Y-71731095D01*
X47839380Y-71350142D01*
X47887000Y-71254904D01*
X47934619Y-71207285D01*
X48029857Y-71159666D01*
X48172714Y-71159666D01*
X48267952Y-71207285D01*
X48315571Y-71254904D01*
X48363190Y-71350142D01*
X48363190Y-71731095D01*
X48839380Y-70207285D02*
X48839380Y-70778714D01*
X48839380Y-70493000D02*
X47839380Y-70493000D01*
X47982238Y-70588238D01*
X48077476Y-70683476D01*
X48125095Y-70778714D01*
X50466666Y-93432380D02*
X50466666Y-94146666D01*
X50419047Y-94289523D01*
X50323809Y-94384761D01*
X50180952Y-94432380D01*
X50085714Y-94432380D01*
X51466666Y-94432380D02*
X50895238Y-94432380D01*
X51180952Y-94432380D02*
X51180952Y-93432380D01*
X51085714Y-93575238D01*
X50990476Y-93670476D01*
X50895238Y-93718095D01*
X43743714Y-69413380D02*
X43743714Y-68413380D01*
X43981809Y-68413380D01*
X44124666Y-68461000D01*
X44219904Y-68556238D01*
X44267523Y-68651476D01*
X44315142Y-68841952D01*
X44315142Y-68984809D01*
X44267523Y-69175285D01*
X44219904Y-69270523D01*
X44124666Y-69365761D01*
X43981809Y-69413380D01*
X43743714Y-69413380D01*
X45267523Y-69413380D02*
X44696095Y-69413380D01*
X44981809Y-69413380D02*
X44981809Y-68413380D01*
X44886571Y-68556238D01*
X44791333Y-68651476D01*
X44696095Y-68699095D01*
X45886571Y-68413380D02*
X45981809Y-68413380D01*
X46077047Y-68461000D01*
X46124666Y-68508619D01*
X46172285Y-68603857D01*
X46219904Y-68794333D01*
X46219904Y-69032428D01*
X46172285Y-69222904D01*
X46124666Y-69318142D01*
X46077047Y-69365761D01*
X45981809Y-69413380D01*
X45886571Y-69413380D01*
X45791333Y-69365761D01*
X45743714Y-69318142D01*
X45696095Y-69222904D01*
X45648476Y-69032428D01*
X45648476Y-68794333D01*
X45696095Y-68603857D01*
X45743714Y-68508619D01*
X45791333Y-68461000D01*
X45886571Y-68413380D01*
X44172142Y-65952666D02*
X44219761Y-66000285D01*
X44267380Y-66143142D01*
X44267380Y-66238380D01*
X44219761Y-66381238D01*
X44124523Y-66476476D01*
X44029285Y-66524095D01*
X43838809Y-66571714D01*
X43695952Y-66571714D01*
X43505476Y-66524095D01*
X43410238Y-66476476D01*
X43315000Y-66381238D01*
X43267380Y-66238380D01*
X43267380Y-66143142D01*
X43315000Y-66000285D01*
X43362619Y-65952666D01*
X43695952Y-65381238D02*
X43648333Y-65476476D01*
X43600714Y-65524095D01*
X43505476Y-65571714D01*
X43457857Y-65571714D01*
X43362619Y-65524095D01*
X43315000Y-65476476D01*
X43267380Y-65381238D01*
X43267380Y-65190761D01*
X43315000Y-65095523D01*
X43362619Y-65047904D01*
X43457857Y-65000285D01*
X43505476Y-65000285D01*
X43600714Y-65047904D01*
X43648333Y-65095523D01*
X43695952Y-65190761D01*
X43695952Y-65381238D01*
X43743571Y-65476476D01*
X43791190Y-65524095D01*
X43886428Y-65571714D01*
X44076904Y-65571714D01*
X44172142Y-65524095D01*
X44219761Y-65476476D01*
X44267380Y-65381238D01*
X44267380Y-65190761D01*
X44219761Y-65095523D01*
X44172142Y-65047904D01*
X44076904Y-65000285D01*
X43886428Y-65000285D01*
X43791190Y-65047904D01*
X43743571Y-65095523D01*
X43695952Y-65190761D01*
X43013333Y-52681142D02*
X42965714Y-52728761D01*
X42822857Y-52776380D01*
X42727619Y-52776380D01*
X42584761Y-52728761D01*
X42489523Y-52633523D01*
X42441904Y-52538285D01*
X42394285Y-52347809D01*
X42394285Y-52204952D01*
X42441904Y-52014476D01*
X42489523Y-51919238D01*
X42584761Y-51824000D01*
X42727619Y-51776380D01*
X42822857Y-51776380D01*
X42965714Y-51824000D01*
X43013333Y-51871619D01*
X43346666Y-51776380D02*
X44013333Y-51776380D01*
X43584761Y-52776380D01*
X50776142Y-70905666D02*
X50823761Y-70953285D01*
X50871380Y-71096142D01*
X50871380Y-71191380D01*
X50823761Y-71334238D01*
X50728523Y-71429476D01*
X50633285Y-71477095D01*
X50442809Y-71524714D01*
X50299952Y-71524714D01*
X50109476Y-71477095D01*
X50014238Y-71429476D01*
X49919000Y-71334238D01*
X49871380Y-71191380D01*
X49871380Y-71096142D01*
X49919000Y-70953285D01*
X49966619Y-70905666D01*
X49871380Y-70048523D02*
X49871380Y-70239000D01*
X49919000Y-70334238D01*
X49966619Y-70381857D01*
X50109476Y-70477095D01*
X50299952Y-70524714D01*
X50680904Y-70524714D01*
X50776142Y-70477095D01*
X50823761Y-70429476D01*
X50871380Y-70334238D01*
X50871380Y-70143761D01*
X50823761Y-70048523D01*
X50776142Y-70000904D01*
X50680904Y-69953285D01*
X50442809Y-69953285D01*
X50347571Y-70000904D01*
X50299952Y-70048523D01*
X50252333Y-70143761D01*
X50252333Y-70334238D01*
X50299952Y-70429476D01*
X50347571Y-70477095D01*
X50442809Y-70524714D01*
X52764142Y-71159666D02*
X52811761Y-71207285D01*
X52859380Y-71350142D01*
X52859380Y-71445380D01*
X52811761Y-71588238D01*
X52716523Y-71683476D01*
X52621285Y-71731095D01*
X52430809Y-71778714D01*
X52287952Y-71778714D01*
X52097476Y-71731095D01*
X52002238Y-71683476D01*
X51907000Y-71588238D01*
X51859380Y-71445380D01*
X51859380Y-71350142D01*
X51907000Y-71207285D01*
X51954619Y-71159666D01*
X51859380Y-70254904D02*
X51859380Y-70731095D01*
X52335571Y-70778714D01*
X52287952Y-70731095D01*
X52240333Y-70635857D01*
X52240333Y-70397761D01*
X52287952Y-70302523D01*
X52335571Y-70254904D01*
X52430809Y-70207285D01*
X52668904Y-70207285D01*
X52764142Y-70254904D01*
X52811761Y-70302523D01*
X52859380Y-70397761D01*
X52859380Y-70635857D01*
X52811761Y-70731095D01*
X52764142Y-70778714D01*
X43595333Y-75668142D02*
X43547714Y-75715761D01*
X43404857Y-75763380D01*
X43309619Y-75763380D01*
X43166761Y-75715761D01*
X43071523Y-75620523D01*
X43023904Y-75525285D01*
X42976285Y-75334809D01*
X42976285Y-75191952D01*
X43023904Y-75001476D01*
X43071523Y-74906238D01*
X43166761Y-74811000D01*
X43309619Y-74763380D01*
X43404857Y-74763380D01*
X43547714Y-74811000D01*
X43595333Y-74858619D01*
X44452476Y-75096714D02*
X44452476Y-75763380D01*
X44214380Y-74715761D02*
X43976285Y-75430047D01*
X44595333Y-75430047D01*
X43595333Y-77954142D02*
X43547714Y-78001761D01*
X43404857Y-78049380D01*
X43309619Y-78049380D01*
X43166761Y-78001761D01*
X43071523Y-77906523D01*
X43023904Y-77811285D01*
X42976285Y-77620809D01*
X42976285Y-77477952D01*
X43023904Y-77287476D01*
X43071523Y-77192238D01*
X43166761Y-77097000D01*
X43309619Y-77049380D01*
X43404857Y-77049380D01*
X43547714Y-77097000D01*
X43595333Y-77144619D01*
X43928666Y-77049380D02*
X44547714Y-77049380D01*
X44214380Y-77430333D01*
X44357238Y-77430333D01*
X44452476Y-77477952D01*
X44500095Y-77525571D01*
X44547714Y-77620809D01*
X44547714Y-77858904D01*
X44500095Y-77954142D01*
X44452476Y-78001761D01*
X44357238Y-78049380D01*
X44071523Y-78049380D01*
X43976285Y-78001761D01*
X43928666Y-77954142D01*
X43267333Y-47601142D02*
X43219714Y-47648761D01*
X43076857Y-47696380D01*
X42981619Y-47696380D01*
X42838761Y-47648761D01*
X42743523Y-47553523D01*
X42695904Y-47458285D01*
X42648285Y-47267809D01*
X42648285Y-47124952D01*
X42695904Y-46934476D01*
X42743523Y-46839238D01*
X42838761Y-46744000D01*
X42981619Y-46696380D01*
X43076857Y-46696380D01*
X43219714Y-46744000D01*
X43267333Y-46791619D01*
X44219714Y-47696380D02*
X43648285Y-47696380D01*
X43934000Y-47696380D02*
X43934000Y-46696380D01*
X43838761Y-46839238D01*
X43743523Y-46934476D01*
X43648285Y-46982095D01*
X113085714Y-106934380D02*
X113085714Y-105934380D01*
X113323809Y-105934380D01*
X113466666Y-105982000D01*
X113561904Y-106077238D01*
X113609523Y-106172476D01*
X113657142Y-106362952D01*
X113657142Y-106505809D01*
X113609523Y-106696285D01*
X113561904Y-106791523D01*
X113466666Y-106886761D01*
X113323809Y-106934380D01*
X113085714Y-106934380D01*
X113990476Y-105934380D02*
X114609523Y-105934380D01*
X114276190Y-106315333D01*
X114419047Y-106315333D01*
X114514285Y-106362952D01*
X114561904Y-106410571D01*
X114609523Y-106505809D01*
X114609523Y-106743904D01*
X114561904Y-106839142D01*
X114514285Y-106886761D01*
X114419047Y-106934380D01*
X114133333Y-106934380D01*
X114038095Y-106886761D01*
X113990476Y-106839142D01*
X115466666Y-105934380D02*
X115276190Y-105934380D01*
X115180952Y-105982000D01*
X115133333Y-106029619D01*
X115038095Y-106172476D01*
X114990476Y-106362952D01*
X114990476Y-106743904D01*
X115038095Y-106839142D01*
X115085714Y-106886761D01*
X115180952Y-106934380D01*
X115371428Y-106934380D01*
X115466666Y-106886761D01*
X115514285Y-106839142D01*
X115561904Y-106743904D01*
X115561904Y-106505809D01*
X115514285Y-106410571D01*
X115466666Y-106362952D01*
X115371428Y-106315333D01*
X115180952Y-106315333D01*
X115085714Y-106362952D01*
X115038095Y-106410571D01*
X114990476Y-106505809D01*
X58221714Y-106934380D02*
X58221714Y-105934380D01*
X58459809Y-105934380D01*
X58602666Y-105982000D01*
X58697904Y-106077238D01*
X58745523Y-106172476D01*
X58793142Y-106362952D01*
X58793142Y-106505809D01*
X58745523Y-106696285D01*
X58697904Y-106791523D01*
X58602666Y-106886761D01*
X58459809Y-106934380D01*
X58221714Y-106934380D01*
X59126476Y-105934380D02*
X59745523Y-105934380D01*
X59412190Y-106315333D01*
X59555047Y-106315333D01*
X59650285Y-106362952D01*
X59697904Y-106410571D01*
X59745523Y-106505809D01*
X59745523Y-106743904D01*
X59697904Y-106839142D01*
X59650285Y-106886761D01*
X59555047Y-106934380D01*
X59269333Y-106934380D01*
X59174095Y-106886761D01*
X59126476Y-106839142D01*
X60126476Y-106029619D02*
X60174095Y-105982000D01*
X60269333Y-105934380D01*
X60507428Y-105934380D01*
X60602666Y-105982000D01*
X60650285Y-106029619D01*
X60697904Y-106124857D01*
X60697904Y-106220095D01*
X60650285Y-106362952D01*
X60078857Y-106934380D01*
X60697904Y-106934380D01*
X44505714Y-106934380D02*
X44505714Y-105934380D01*
X44743809Y-105934380D01*
X44886666Y-105982000D01*
X44981904Y-106077238D01*
X45029523Y-106172476D01*
X45077142Y-106362952D01*
X45077142Y-106505809D01*
X45029523Y-106696285D01*
X44981904Y-106791523D01*
X44886666Y-106886761D01*
X44743809Y-106934380D01*
X44505714Y-106934380D01*
X45410476Y-105934380D02*
X46029523Y-105934380D01*
X45696190Y-106315333D01*
X45839047Y-106315333D01*
X45934285Y-106362952D01*
X45981904Y-106410571D01*
X46029523Y-106505809D01*
X46029523Y-106743904D01*
X45981904Y-106839142D01*
X45934285Y-106886761D01*
X45839047Y-106934380D01*
X45553333Y-106934380D01*
X45458095Y-106886761D01*
X45410476Y-106839142D01*
X46981904Y-106934380D02*
X46410476Y-106934380D01*
X46696190Y-106934380D02*
X46696190Y-105934380D01*
X46600952Y-106077238D01*
X46505714Y-106172476D01*
X46410476Y-106220095D01*
X41855714Y-101722380D02*
X41284285Y-101722380D01*
X41570000Y-101722380D02*
X41570000Y-100722380D01*
X41474761Y-100865238D01*
X41379523Y-100960476D01*
X41284285Y-101008095D01*
X39512380Y-104084285D02*
X38512380Y-104084285D01*
X38512380Y-103846190D01*
X38560000Y-103703333D01*
X38655238Y-103608095D01*
X38750476Y-103560476D01*
X38940952Y-103512857D01*
X39083809Y-103512857D01*
X39274285Y-103560476D01*
X39369523Y-103608095D01*
X39464761Y-103703333D01*
X39512380Y-103846190D01*
X39512380Y-104084285D01*
X38607619Y-103131904D02*
X38560000Y-103084285D01*
X38512380Y-102989047D01*
X38512380Y-102750952D01*
X38560000Y-102655714D01*
X38607619Y-102608095D01*
X38702857Y-102560476D01*
X38798095Y-102560476D01*
X38940952Y-102608095D01*
X39512380Y-103179523D01*
X39512380Y-102560476D01*
X38845714Y-101703333D02*
X39512380Y-101703333D01*
X38464761Y-101941428D02*
X39179047Y-102179523D01*
X39179047Y-101560476D01*
X37612380Y-98434285D02*
X37612380Y-99005714D01*
X37612380Y-98720000D02*
X36612380Y-98720000D01*
X36755238Y-98815238D01*
X36850476Y-98910476D01*
X36898095Y-99005714D01*
X123952380Y-104084285D02*
X122952380Y-104084285D01*
X122952380Y-103846190D01*
X123000000Y-103703333D01*
X123095238Y-103608095D01*
X123190476Y-103560476D01*
X123380952Y-103512857D01*
X123523809Y-103512857D01*
X123714285Y-103560476D01*
X123809523Y-103608095D01*
X123904761Y-103703333D01*
X123952380Y-103846190D01*
X123952380Y-104084285D01*
X123047619Y-103131904D02*
X123000000Y-103084285D01*
X122952380Y-102989047D01*
X122952380Y-102750952D01*
X123000000Y-102655714D01*
X123047619Y-102608095D01*
X123142857Y-102560476D01*
X123238095Y-102560476D01*
X123380952Y-102608095D01*
X123952380Y-103179523D01*
X123952380Y-102560476D01*
X122952380Y-102227142D02*
X122952380Y-101608095D01*
X123333333Y-101941428D01*
X123333333Y-101798571D01*
X123380952Y-101703333D01*
X123428571Y-101655714D01*
X123523809Y-101608095D01*
X123761904Y-101608095D01*
X123857142Y-101655714D01*
X123904761Y-101703333D01*
X123952380Y-101798571D01*
X123952380Y-102084285D01*
X123904761Y-102179523D01*
X123857142Y-102227142D01*
X125852380Y-106734285D02*
X125852380Y-107305714D01*
X125852380Y-107020000D02*
X124852380Y-107020000D01*
X124995238Y-107115238D01*
X125090476Y-107210476D01*
X125138095Y-107305714D01*
X39512380Y-90114285D02*
X38512380Y-90114285D01*
X38512380Y-89876190D01*
X38560000Y-89733333D01*
X38655238Y-89638095D01*
X38750476Y-89590476D01*
X38940952Y-89542857D01*
X39083809Y-89542857D01*
X39274285Y-89590476D01*
X39369523Y-89638095D01*
X39464761Y-89733333D01*
X39512380Y-89876190D01*
X39512380Y-90114285D01*
X38607619Y-89161904D02*
X38560000Y-89114285D01*
X38512380Y-89019047D01*
X38512380Y-88780952D01*
X38560000Y-88685714D01*
X38607619Y-88638095D01*
X38702857Y-88590476D01*
X38798095Y-88590476D01*
X38940952Y-88638095D01*
X39512380Y-89209523D01*
X39512380Y-88590476D01*
X38607619Y-88209523D02*
X38560000Y-88161904D01*
X38512380Y-88066666D01*
X38512380Y-87828571D01*
X38560000Y-87733333D01*
X38607619Y-87685714D01*
X38702857Y-87638095D01*
X38798095Y-87638095D01*
X38940952Y-87685714D01*
X39512380Y-88257142D01*
X39512380Y-87638095D01*
X37612380Y-84464285D02*
X37612380Y-85035714D01*
X37612380Y-84750000D02*
X36612380Y-84750000D01*
X36755238Y-84845238D01*
X36850476Y-84940476D01*
X36898095Y-85035714D01*
X123952380Y-90114285D02*
X122952380Y-90114285D01*
X122952380Y-89876190D01*
X123000000Y-89733333D01*
X123095238Y-89638095D01*
X123190476Y-89590476D01*
X123380952Y-89542857D01*
X123523809Y-89542857D01*
X123714285Y-89590476D01*
X123809523Y-89638095D01*
X123904761Y-89733333D01*
X123952380Y-89876190D01*
X123952380Y-90114285D01*
X123047619Y-89161904D02*
X123000000Y-89114285D01*
X122952380Y-89019047D01*
X122952380Y-88780952D01*
X123000000Y-88685714D01*
X123047619Y-88638095D01*
X123142857Y-88590476D01*
X123238095Y-88590476D01*
X123380952Y-88638095D01*
X123952380Y-89209523D01*
X123952380Y-88590476D01*
X123952380Y-87638095D02*
X123952380Y-88209523D01*
X123952380Y-87923809D02*
X122952380Y-87923809D01*
X123095238Y-88019047D01*
X123190476Y-88114285D01*
X123238095Y-88209523D01*
X125852380Y-92764285D02*
X125852380Y-93335714D01*
X125852380Y-93050000D02*
X124852380Y-93050000D01*
X124995238Y-93145238D01*
X125090476Y-93240476D01*
X125138095Y-93335714D01*
X39512380Y-76144285D02*
X38512380Y-76144285D01*
X38512380Y-75906190D01*
X38560000Y-75763333D01*
X38655238Y-75668095D01*
X38750476Y-75620476D01*
X38940952Y-75572857D01*
X39083809Y-75572857D01*
X39274285Y-75620476D01*
X39369523Y-75668095D01*
X39464761Y-75763333D01*
X39512380Y-75906190D01*
X39512380Y-76144285D01*
X38607619Y-75191904D02*
X38560000Y-75144285D01*
X38512380Y-75049047D01*
X38512380Y-74810952D01*
X38560000Y-74715714D01*
X38607619Y-74668095D01*
X38702857Y-74620476D01*
X38798095Y-74620476D01*
X38940952Y-74668095D01*
X39512380Y-75239523D01*
X39512380Y-74620476D01*
X38512380Y-74001428D02*
X38512380Y-73906190D01*
X38560000Y-73810952D01*
X38607619Y-73763333D01*
X38702857Y-73715714D01*
X38893333Y-73668095D01*
X39131428Y-73668095D01*
X39321904Y-73715714D01*
X39417142Y-73763333D01*
X39464761Y-73810952D01*
X39512380Y-73906190D01*
X39512380Y-74001428D01*
X39464761Y-74096666D01*
X39417142Y-74144285D01*
X39321904Y-74191904D01*
X39131428Y-74239523D01*
X38893333Y-74239523D01*
X38702857Y-74191904D01*
X38607619Y-74144285D01*
X38560000Y-74096666D01*
X38512380Y-74001428D01*
X123952380Y-76144285D02*
X122952380Y-76144285D01*
X122952380Y-75906190D01*
X123000000Y-75763333D01*
X123095238Y-75668095D01*
X123190476Y-75620476D01*
X123380952Y-75572857D01*
X123523809Y-75572857D01*
X123714285Y-75620476D01*
X123809523Y-75668095D01*
X123904761Y-75763333D01*
X123952380Y-75906190D01*
X123952380Y-76144285D01*
X123952380Y-74620476D02*
X123952380Y-75191904D01*
X123952380Y-74906190D02*
X122952380Y-74906190D01*
X123095238Y-75001428D01*
X123190476Y-75096666D01*
X123238095Y-75191904D01*
X123952380Y-74144285D02*
X123952380Y-73953809D01*
X123904761Y-73858571D01*
X123857142Y-73810952D01*
X123714285Y-73715714D01*
X123523809Y-73668095D01*
X123142857Y-73668095D01*
X123047619Y-73715714D01*
X123000000Y-73763333D01*
X122952380Y-73858571D01*
X122952380Y-74049047D01*
X123000000Y-74144285D01*
X123047619Y-74191904D01*
X123142857Y-74239523D01*
X123380952Y-74239523D01*
X123476190Y-74191904D01*
X123523809Y-74144285D01*
X123571428Y-74049047D01*
X123571428Y-73858571D01*
X123523809Y-73763333D01*
X123476190Y-73715714D01*
X123380952Y-73668095D01*
X125852380Y-78794285D02*
X125852380Y-79365714D01*
X125852380Y-79080000D02*
X124852380Y-79080000D01*
X124995238Y-79175238D01*
X125090476Y-79270476D01*
X125138095Y-79365714D01*
X39512380Y-62174285D02*
X38512380Y-62174285D01*
X38512380Y-61936190D01*
X38560000Y-61793333D01*
X38655238Y-61698095D01*
X38750476Y-61650476D01*
X38940952Y-61602857D01*
X39083809Y-61602857D01*
X39274285Y-61650476D01*
X39369523Y-61698095D01*
X39464761Y-61793333D01*
X39512380Y-61936190D01*
X39512380Y-62174285D01*
X39512380Y-60650476D02*
X39512380Y-61221904D01*
X39512380Y-60936190D02*
X38512380Y-60936190D01*
X38655238Y-61031428D01*
X38750476Y-61126666D01*
X38798095Y-61221904D01*
X38940952Y-60079047D02*
X38893333Y-60174285D01*
X38845714Y-60221904D01*
X38750476Y-60269523D01*
X38702857Y-60269523D01*
X38607619Y-60221904D01*
X38560000Y-60174285D01*
X38512380Y-60079047D01*
X38512380Y-59888571D01*
X38560000Y-59793333D01*
X38607619Y-59745714D01*
X38702857Y-59698095D01*
X38750476Y-59698095D01*
X38845714Y-59745714D01*
X38893333Y-59793333D01*
X38940952Y-59888571D01*
X38940952Y-60079047D01*
X38988571Y-60174285D01*
X39036190Y-60221904D01*
X39131428Y-60269523D01*
X39321904Y-60269523D01*
X39417142Y-60221904D01*
X39464761Y-60174285D01*
X39512380Y-60079047D01*
X39512380Y-59888571D01*
X39464761Y-59793333D01*
X39417142Y-59745714D01*
X39321904Y-59698095D01*
X39131428Y-59698095D01*
X39036190Y-59745714D01*
X38988571Y-59793333D01*
X38940952Y-59888571D01*
X37612380Y-56524285D02*
X37612380Y-57095714D01*
X37612380Y-56810000D02*
X36612380Y-56810000D01*
X36755238Y-56905238D01*
X36850476Y-57000476D01*
X36898095Y-57095714D01*
X123952380Y-62174285D02*
X122952380Y-62174285D01*
X122952380Y-61936190D01*
X123000000Y-61793333D01*
X123095238Y-61698095D01*
X123190476Y-61650476D01*
X123380952Y-61602857D01*
X123523809Y-61602857D01*
X123714285Y-61650476D01*
X123809523Y-61698095D01*
X123904761Y-61793333D01*
X123952380Y-61936190D01*
X123952380Y-62174285D01*
X123952380Y-60650476D02*
X123952380Y-61221904D01*
X123952380Y-60936190D02*
X122952380Y-60936190D01*
X123095238Y-61031428D01*
X123190476Y-61126666D01*
X123238095Y-61221904D01*
X122952380Y-60317142D02*
X122952380Y-59650476D01*
X123952380Y-60079047D01*
X39512380Y-48204285D02*
X38512380Y-48204285D01*
X38512380Y-47966190D01*
X38560000Y-47823333D01*
X38655238Y-47728095D01*
X38750476Y-47680476D01*
X38940952Y-47632857D01*
X39083809Y-47632857D01*
X39274285Y-47680476D01*
X39369523Y-47728095D01*
X39464761Y-47823333D01*
X39512380Y-47966190D01*
X39512380Y-48204285D01*
X39512380Y-46680476D02*
X39512380Y-47251904D01*
X39512380Y-46966190D02*
X38512380Y-46966190D01*
X38655238Y-47061428D01*
X38750476Y-47156666D01*
X38798095Y-47251904D01*
X38512380Y-45823333D02*
X38512380Y-46013809D01*
X38560000Y-46109047D01*
X38607619Y-46156666D01*
X38750476Y-46251904D01*
X38940952Y-46299523D01*
X39321904Y-46299523D01*
X39417142Y-46251904D01*
X39464761Y-46204285D01*
X39512380Y-46109047D01*
X39512380Y-45918571D01*
X39464761Y-45823333D01*
X39417142Y-45775714D01*
X39321904Y-45728095D01*
X39083809Y-45728095D01*
X38988571Y-45775714D01*
X38940952Y-45823333D01*
X38893333Y-45918571D01*
X38893333Y-46109047D01*
X38940952Y-46204285D01*
X38988571Y-46251904D01*
X39083809Y-46299523D01*
X37612380Y-42554285D02*
X37612380Y-43125714D01*
X37612380Y-42840000D02*
X36612380Y-42840000D01*
X36755238Y-42935238D01*
X36850476Y-43030476D01*
X36898095Y-43125714D01*
X123952380Y-48204285D02*
X122952380Y-48204285D01*
X122952380Y-47966190D01*
X123000000Y-47823333D01*
X123095238Y-47728095D01*
X123190476Y-47680476D01*
X123380952Y-47632857D01*
X123523809Y-47632857D01*
X123714285Y-47680476D01*
X123809523Y-47728095D01*
X123904761Y-47823333D01*
X123952380Y-47966190D01*
X123952380Y-48204285D01*
X123952380Y-46680476D02*
X123952380Y-47251904D01*
X123952380Y-46966190D02*
X122952380Y-46966190D01*
X123095238Y-47061428D01*
X123190476Y-47156666D01*
X123238095Y-47251904D01*
X122952380Y-45775714D02*
X122952380Y-46251904D01*
X123428571Y-46299523D01*
X123380952Y-46251904D01*
X123333333Y-46156666D01*
X123333333Y-45918571D01*
X123380952Y-45823333D01*
X123428571Y-45775714D01*
X123523809Y-45728095D01*
X123761904Y-45728095D01*
X123857142Y-45775714D01*
X123904761Y-45823333D01*
X123952380Y-45918571D01*
X123952380Y-46156666D01*
X123904761Y-46251904D01*
X123857142Y-46299523D01*
X125852380Y-50854285D02*
X125852380Y-51425714D01*
X125852380Y-51140000D02*
X124852380Y-51140000D01*
X124995238Y-51235238D01*
X125090476Y-51330476D01*
X125138095Y-51425714D01*
X39512380Y-34234285D02*
X38512380Y-34234285D01*
X38512380Y-33996190D01*
X38560000Y-33853333D01*
X38655238Y-33758095D01*
X38750476Y-33710476D01*
X38940952Y-33662857D01*
X39083809Y-33662857D01*
X39274285Y-33710476D01*
X39369523Y-33758095D01*
X39464761Y-33853333D01*
X39512380Y-33996190D01*
X39512380Y-34234285D01*
X39512380Y-32710476D02*
X39512380Y-33281904D01*
X39512380Y-32996190D02*
X38512380Y-32996190D01*
X38655238Y-33091428D01*
X38750476Y-33186666D01*
X38798095Y-33281904D01*
X38845714Y-31853333D02*
X39512380Y-31853333D01*
X38464761Y-32091428D02*
X39179047Y-32329523D01*
X39179047Y-31710476D01*
X37612380Y-28584285D02*
X37612380Y-29155714D01*
X37612380Y-28870000D02*
X36612380Y-28870000D01*
X36755238Y-28965238D01*
X36850476Y-29060476D01*
X36898095Y-29155714D01*
X123952380Y-34234285D02*
X122952380Y-34234285D01*
X122952380Y-33996190D01*
X123000000Y-33853333D01*
X123095238Y-33758095D01*
X123190476Y-33710476D01*
X123380952Y-33662857D01*
X123523809Y-33662857D01*
X123714285Y-33710476D01*
X123809523Y-33758095D01*
X123904761Y-33853333D01*
X123952380Y-33996190D01*
X123952380Y-34234285D01*
X123952380Y-32710476D02*
X123952380Y-33281904D01*
X123952380Y-32996190D02*
X122952380Y-32996190D01*
X123095238Y-33091428D01*
X123190476Y-33186666D01*
X123238095Y-33281904D01*
X122952380Y-32377142D02*
X122952380Y-31758095D01*
X123333333Y-32091428D01*
X123333333Y-31948571D01*
X123380952Y-31853333D01*
X123428571Y-31805714D01*
X123523809Y-31758095D01*
X123761904Y-31758095D01*
X123857142Y-31805714D01*
X123904761Y-31853333D01*
X123952380Y-31948571D01*
X123952380Y-32234285D01*
X123904761Y-32329523D01*
X123857142Y-32377142D01*
X125852380Y-36884285D02*
X125852380Y-37455714D01*
X125852380Y-37170000D02*
X124852380Y-37170000D01*
X124995238Y-37265238D01*
X125090476Y-37360476D01*
X125138095Y-37455714D01*
X113561904Y-36972380D02*
X113561904Y-35972380D01*
X113800000Y-35972380D01*
X113942857Y-36020000D01*
X114038095Y-36115238D01*
X114085714Y-36210476D01*
X114133333Y-36400952D01*
X114133333Y-36543809D01*
X114085714Y-36734285D01*
X114038095Y-36829523D01*
X113942857Y-36924761D01*
X113800000Y-36972380D01*
X113561904Y-36972380D01*
X114990476Y-35972380D02*
X114800000Y-35972380D01*
X114704761Y-36020000D01*
X114657142Y-36067619D01*
X114561904Y-36210476D01*
X114514285Y-36400952D01*
X114514285Y-36781904D01*
X114561904Y-36877142D01*
X114609523Y-36924761D01*
X114704761Y-36972380D01*
X114895238Y-36972380D01*
X114990476Y-36924761D01*
X115038095Y-36877142D01*
X115085714Y-36781904D01*
X115085714Y-36543809D01*
X115038095Y-36448571D01*
X114990476Y-36400952D01*
X114895238Y-36353333D01*
X114704761Y-36353333D01*
X114609523Y-36400952D01*
X114561904Y-36448571D01*
X114514285Y-36543809D01*
X99845904Y-36972380D02*
X99845904Y-35972380D01*
X100084000Y-35972380D01*
X100226857Y-36020000D01*
X100322095Y-36115238D01*
X100369714Y-36210476D01*
X100417333Y-36400952D01*
X100417333Y-36543809D01*
X100369714Y-36734285D01*
X100322095Y-36829523D01*
X100226857Y-36924761D01*
X100084000Y-36972380D01*
X99845904Y-36972380D01*
X101322095Y-35972380D02*
X100845904Y-35972380D01*
X100798285Y-36448571D01*
X100845904Y-36400952D01*
X100941142Y-36353333D01*
X101179238Y-36353333D01*
X101274476Y-36400952D01*
X101322095Y-36448571D01*
X101369714Y-36543809D01*
X101369714Y-36781904D01*
X101322095Y-36877142D01*
X101274476Y-36924761D01*
X101179238Y-36972380D01*
X100941142Y-36972380D01*
X100845904Y-36924761D01*
X100798285Y-36877142D01*
X86129904Y-36972380D02*
X86129904Y-35972380D01*
X86368000Y-35972380D01*
X86510857Y-36020000D01*
X86606095Y-36115238D01*
X86653714Y-36210476D01*
X86701333Y-36400952D01*
X86701333Y-36543809D01*
X86653714Y-36734285D01*
X86606095Y-36829523D01*
X86510857Y-36924761D01*
X86368000Y-36972380D01*
X86129904Y-36972380D01*
X87558476Y-36305714D02*
X87558476Y-36972380D01*
X87320380Y-35924761D02*
X87082285Y-36639047D01*
X87701333Y-36639047D01*
X72413904Y-36972380D02*
X72413904Y-35972380D01*
X72652000Y-35972380D01*
X72794857Y-36020000D01*
X72890095Y-36115238D01*
X72937714Y-36210476D01*
X72985333Y-36400952D01*
X72985333Y-36543809D01*
X72937714Y-36734285D01*
X72890095Y-36829523D01*
X72794857Y-36924761D01*
X72652000Y-36972380D01*
X72413904Y-36972380D01*
X73318666Y-35972380D02*
X73937714Y-35972380D01*
X73604380Y-36353333D01*
X73747238Y-36353333D01*
X73842476Y-36400952D01*
X73890095Y-36448571D01*
X73937714Y-36543809D01*
X73937714Y-36781904D01*
X73890095Y-36877142D01*
X73842476Y-36924761D01*
X73747238Y-36972380D01*
X73461523Y-36972380D01*
X73366285Y-36924761D01*
X73318666Y-36877142D01*
X58697904Y-36972380D02*
X58697904Y-35972380D01*
X58936000Y-35972380D01*
X59078857Y-36020000D01*
X59174095Y-36115238D01*
X59221714Y-36210476D01*
X59269333Y-36400952D01*
X59269333Y-36543809D01*
X59221714Y-36734285D01*
X59174095Y-36829523D01*
X59078857Y-36924761D01*
X58936000Y-36972380D01*
X58697904Y-36972380D01*
X59650285Y-36067619D02*
X59697904Y-36020000D01*
X59793142Y-35972380D01*
X60031238Y-35972380D01*
X60126476Y-36020000D01*
X60174095Y-36067619D01*
X60221714Y-36162857D01*
X60221714Y-36258095D01*
X60174095Y-36400952D01*
X59602666Y-36972380D01*
X60221714Y-36972380D01*
X44981904Y-36972380D02*
X44981904Y-35972380D01*
X45220000Y-35972380D01*
X45362857Y-36020000D01*
X45458095Y-36115238D01*
X45505714Y-36210476D01*
X45553333Y-36400952D01*
X45553333Y-36543809D01*
X45505714Y-36734285D01*
X45458095Y-36829523D01*
X45362857Y-36924761D01*
X45220000Y-36972380D01*
X44981904Y-36972380D01*
X46505714Y-36972380D02*
X45934285Y-36972380D01*
X46220000Y-36972380D02*
X46220000Y-35972380D01*
X46124761Y-36115238D01*
X46029523Y-36210476D01*
X45934285Y-36258095D01*
%LPC*%
G36*
G01*
X50652000Y-62682000D02*
X50652000Y-64007000D01*
G75*
G02*
X50577000Y-64082000I-75000J0D01*
G01*
X50427000Y-64082000D01*
G75*
G02*
X50352000Y-64007000I0J75000D01*
G01*
X50352000Y-62682000D01*
G75*
G02*
X50427000Y-62607000I75000J0D01*
G01*
X50577000Y-62607000D01*
G75*
G02*
X50652000Y-62682000I0J-75000D01*
G01*
G37*
G36*
G01*
X50152000Y-62682000D02*
X50152000Y-64007000D01*
G75*
G02*
X50077000Y-64082000I-75000J0D01*
G01*
X49927000Y-64082000D01*
G75*
G02*
X49852000Y-64007000I0J75000D01*
G01*
X49852000Y-62682000D01*
G75*
G02*
X49927000Y-62607000I75000J0D01*
G01*
X50077000Y-62607000D01*
G75*
G02*
X50152000Y-62682000I0J-75000D01*
G01*
G37*
G36*
G01*
X49652000Y-62682000D02*
X49652000Y-64007000D01*
G75*
G02*
X49577000Y-64082000I-75000J0D01*
G01*
X49427000Y-64082000D01*
G75*
G02*
X49352000Y-64007000I0J75000D01*
G01*
X49352000Y-62682000D01*
G75*
G02*
X49427000Y-62607000I75000J0D01*
G01*
X49577000Y-62607000D01*
G75*
G02*
X49652000Y-62682000I0J-75000D01*
G01*
G37*
G36*
G01*
X49152000Y-62682000D02*
X49152000Y-64007000D01*
G75*
G02*
X49077000Y-64082000I-75000J0D01*
G01*
X48927000Y-64082000D01*
G75*
G02*
X48852000Y-64007000I0J75000D01*
G01*
X48852000Y-62682000D01*
G75*
G02*
X48927000Y-62607000I75000J0D01*
G01*
X49077000Y-62607000D01*
G75*
G02*
X49152000Y-62682000I0J-75000D01*
G01*
G37*
G36*
G01*
X48652000Y-62682000D02*
X48652000Y-64007000D01*
G75*
G02*
X48577000Y-64082000I-75000J0D01*
G01*
X48427000Y-64082000D01*
G75*
G02*
X48352000Y-64007000I0J75000D01*
G01*
X48352000Y-62682000D01*
G75*
G02*
X48427000Y-62607000I75000J0D01*
G01*
X48577000Y-62607000D01*
G75*
G02*
X48652000Y-62682000I0J-75000D01*
G01*
G37*
G36*
G01*
X48152000Y-62682000D02*
X48152000Y-64007000D01*
G75*
G02*
X48077000Y-64082000I-75000J0D01*
G01*
X47927000Y-64082000D01*
G75*
G02*
X47852000Y-64007000I0J75000D01*
G01*
X47852000Y-62682000D01*
G75*
G02*
X47927000Y-62607000I75000J0D01*
G01*
X48077000Y-62607000D01*
G75*
G02*
X48152000Y-62682000I0J-75000D01*
G01*
G37*
G36*
G01*
X47652000Y-62682000D02*
X47652000Y-64007000D01*
G75*
G02*
X47577000Y-64082000I-75000J0D01*
G01*
X47427000Y-64082000D01*
G75*
G02*
X47352000Y-64007000I0J75000D01*
G01*
X47352000Y-62682000D01*
G75*
G02*
X47427000Y-62607000I75000J0D01*
G01*
X47577000Y-62607000D01*
G75*
G02*
X47652000Y-62682000I0J-75000D01*
G01*
G37*
G36*
G01*
X47152000Y-62682000D02*
X47152000Y-64007000D01*
G75*
G02*
X47077000Y-64082000I-75000J0D01*
G01*
X46927000Y-64082000D01*
G75*
G02*
X46852000Y-64007000I0J75000D01*
G01*
X46852000Y-62682000D01*
G75*
G02*
X46927000Y-62607000I75000J0D01*
G01*
X47077000Y-62607000D01*
G75*
G02*
X47152000Y-62682000I0J-75000D01*
G01*
G37*
G36*
G01*
X46652000Y-62682000D02*
X46652000Y-64007000D01*
G75*
G02*
X46577000Y-64082000I-75000J0D01*
G01*
X46427000Y-64082000D01*
G75*
G02*
X46352000Y-64007000I0J75000D01*
G01*
X46352000Y-62682000D01*
G75*
G02*
X46427000Y-62607000I75000J0D01*
G01*
X46577000Y-62607000D01*
G75*
G02*
X46652000Y-62682000I0J-75000D01*
G01*
G37*
G36*
G01*
X46152000Y-62682000D02*
X46152000Y-64007000D01*
G75*
G02*
X46077000Y-64082000I-75000J0D01*
G01*
X45927000Y-64082000D01*
G75*
G02*
X45852000Y-64007000I0J75000D01*
G01*
X45852000Y-62682000D01*
G75*
G02*
X45927000Y-62607000I75000J0D01*
G01*
X46077000Y-62607000D01*
G75*
G02*
X46152000Y-62682000I0J-75000D01*
G01*
G37*
G36*
G01*
X45652000Y-62682000D02*
X45652000Y-64007000D01*
G75*
G02*
X45577000Y-64082000I-75000J0D01*
G01*
X45427000Y-64082000D01*
G75*
G02*
X45352000Y-64007000I0J75000D01*
G01*
X45352000Y-62682000D01*
G75*
G02*
X45427000Y-62607000I75000J0D01*
G01*
X45577000Y-62607000D01*
G75*
G02*
X45652000Y-62682000I0J-75000D01*
G01*
G37*
G36*
G01*
X45152000Y-62682000D02*
X45152000Y-64007000D01*
G75*
G02*
X45077000Y-64082000I-75000J0D01*
G01*
X44927000Y-64082000D01*
G75*
G02*
X44852000Y-64007000I0J75000D01*
G01*
X44852000Y-62682000D01*
G75*
G02*
X44927000Y-62607000I75000J0D01*
G01*
X45077000Y-62607000D01*
G75*
G02*
X45152000Y-62682000I0J-75000D01*
G01*
G37*
G36*
G01*
X44327000Y-61857000D02*
X44327000Y-62007000D01*
G75*
G02*
X44252000Y-62082000I-75000J0D01*
G01*
X42927000Y-62082000D01*
G75*
G02*
X42852000Y-62007000I0J75000D01*
G01*
X42852000Y-61857000D01*
G75*
G02*
X42927000Y-61782000I75000J0D01*
G01*
X44252000Y-61782000D01*
G75*
G02*
X44327000Y-61857000I0J-75000D01*
G01*
G37*
G36*
G01*
X44327000Y-61357000D02*
X44327000Y-61507000D01*
G75*
G02*
X44252000Y-61582000I-75000J0D01*
G01*
X42927000Y-61582000D01*
G75*
G02*
X42852000Y-61507000I0J75000D01*
G01*
X42852000Y-61357000D01*
G75*
G02*
X42927000Y-61282000I75000J0D01*
G01*
X44252000Y-61282000D01*
G75*
G02*
X44327000Y-61357000I0J-75000D01*
G01*
G37*
G36*
G01*
X44327000Y-60857000D02*
X44327000Y-61007000D01*
G75*
G02*
X44252000Y-61082000I-75000J0D01*
G01*
X42927000Y-61082000D01*
G75*
G02*
X42852000Y-61007000I0J75000D01*
G01*
X42852000Y-60857000D01*
G75*
G02*
X42927000Y-60782000I75000J0D01*
G01*
X44252000Y-60782000D01*
G75*
G02*
X44327000Y-60857000I0J-75000D01*
G01*
G37*
G36*
G01*
X44327000Y-60357000D02*
X44327000Y-60507000D01*
G75*
G02*
X44252000Y-60582000I-75000J0D01*
G01*
X42927000Y-60582000D01*
G75*
G02*
X42852000Y-60507000I0J75000D01*
G01*
X42852000Y-60357000D01*
G75*
G02*
X42927000Y-60282000I75000J0D01*
G01*
X44252000Y-60282000D01*
G75*
G02*
X44327000Y-60357000I0J-75000D01*
G01*
G37*
G36*
G01*
X44327000Y-59857000D02*
X44327000Y-60007000D01*
G75*
G02*
X44252000Y-60082000I-75000J0D01*
G01*
X42927000Y-60082000D01*
G75*
G02*
X42852000Y-60007000I0J75000D01*
G01*
X42852000Y-59857000D01*
G75*
G02*
X42927000Y-59782000I75000J0D01*
G01*
X44252000Y-59782000D01*
G75*
G02*
X44327000Y-59857000I0J-75000D01*
G01*
G37*
G36*
G01*
X44327000Y-59357000D02*
X44327000Y-59507000D01*
G75*
G02*
X44252000Y-59582000I-75000J0D01*
G01*
X42927000Y-59582000D01*
G75*
G02*
X42852000Y-59507000I0J75000D01*
G01*
X42852000Y-59357000D01*
G75*
G02*
X42927000Y-59282000I75000J0D01*
G01*
X44252000Y-59282000D01*
G75*
G02*
X44327000Y-59357000I0J-75000D01*
G01*
G37*
G36*
G01*
X44327000Y-58857000D02*
X44327000Y-59007000D01*
G75*
G02*
X44252000Y-59082000I-75000J0D01*
G01*
X42927000Y-59082000D01*
G75*
G02*
X42852000Y-59007000I0J75000D01*
G01*
X42852000Y-58857000D01*
G75*
G02*
X42927000Y-58782000I75000J0D01*
G01*
X44252000Y-58782000D01*
G75*
G02*
X44327000Y-58857000I0J-75000D01*
G01*
G37*
G36*
G01*
X44327000Y-58357000D02*
X44327000Y-58507000D01*
G75*
G02*
X44252000Y-58582000I-75000J0D01*
G01*
X42927000Y-58582000D01*
G75*
G02*
X42852000Y-58507000I0J75000D01*
G01*
X42852000Y-58357000D01*
G75*
G02*
X42927000Y-58282000I75000J0D01*
G01*
X44252000Y-58282000D01*
G75*
G02*
X44327000Y-58357000I0J-75000D01*
G01*
G37*
G36*
G01*
X44327000Y-57857000D02*
X44327000Y-58007000D01*
G75*
G02*
X44252000Y-58082000I-75000J0D01*
G01*
X42927000Y-58082000D01*
G75*
G02*
X42852000Y-58007000I0J75000D01*
G01*
X42852000Y-57857000D01*
G75*
G02*
X42927000Y-57782000I75000J0D01*
G01*
X44252000Y-57782000D01*
G75*
G02*
X44327000Y-57857000I0J-75000D01*
G01*
G37*
G36*
G01*
X44327000Y-57357000D02*
X44327000Y-57507000D01*
G75*
G02*
X44252000Y-57582000I-75000J0D01*
G01*
X42927000Y-57582000D01*
G75*
G02*
X42852000Y-57507000I0J75000D01*
G01*
X42852000Y-57357000D01*
G75*
G02*
X42927000Y-57282000I75000J0D01*
G01*
X44252000Y-57282000D01*
G75*
G02*
X44327000Y-57357000I0J-75000D01*
G01*
G37*
G36*
G01*
X44327000Y-56857000D02*
X44327000Y-57007000D01*
G75*
G02*
X44252000Y-57082000I-75000J0D01*
G01*
X42927000Y-57082000D01*
G75*
G02*
X42852000Y-57007000I0J75000D01*
G01*
X42852000Y-56857000D01*
G75*
G02*
X42927000Y-56782000I75000J0D01*
G01*
X44252000Y-56782000D01*
G75*
G02*
X44327000Y-56857000I0J-75000D01*
G01*
G37*
G36*
G01*
X44327000Y-56357000D02*
X44327000Y-56507000D01*
G75*
G02*
X44252000Y-56582000I-75000J0D01*
G01*
X42927000Y-56582000D01*
G75*
G02*
X42852000Y-56507000I0J75000D01*
G01*
X42852000Y-56357000D01*
G75*
G02*
X42927000Y-56282000I75000J0D01*
G01*
X44252000Y-56282000D01*
G75*
G02*
X44327000Y-56357000I0J-75000D01*
G01*
G37*
G36*
G01*
X45152000Y-54357000D02*
X45152000Y-55682000D01*
G75*
G02*
X45077000Y-55757000I-75000J0D01*
G01*
X44927000Y-55757000D01*
G75*
G02*
X44852000Y-55682000I0J75000D01*
G01*
X44852000Y-54357000D01*
G75*
G02*
X44927000Y-54282000I75000J0D01*
G01*
X45077000Y-54282000D01*
G75*
G02*
X45152000Y-54357000I0J-75000D01*
G01*
G37*
G36*
G01*
X45652000Y-54357000D02*
X45652000Y-55682000D01*
G75*
G02*
X45577000Y-55757000I-75000J0D01*
G01*
X45427000Y-55757000D01*
G75*
G02*
X45352000Y-55682000I0J75000D01*
G01*
X45352000Y-54357000D01*
G75*
G02*
X45427000Y-54282000I75000J0D01*
G01*
X45577000Y-54282000D01*
G75*
G02*
X45652000Y-54357000I0J-75000D01*
G01*
G37*
G36*
G01*
X46152000Y-54357000D02*
X46152000Y-55682000D01*
G75*
G02*
X46077000Y-55757000I-75000J0D01*
G01*
X45927000Y-55757000D01*
G75*
G02*
X45852000Y-55682000I0J75000D01*
G01*
X45852000Y-54357000D01*
G75*
G02*
X45927000Y-54282000I75000J0D01*
G01*
X46077000Y-54282000D01*
G75*
G02*
X46152000Y-54357000I0J-75000D01*
G01*
G37*
G36*
G01*
X46652000Y-54357000D02*
X46652000Y-55682000D01*
G75*
G02*
X46577000Y-55757000I-75000J0D01*
G01*
X46427000Y-55757000D01*
G75*
G02*
X46352000Y-55682000I0J75000D01*
G01*
X46352000Y-54357000D01*
G75*
G02*
X46427000Y-54282000I75000J0D01*
G01*
X46577000Y-54282000D01*
G75*
G02*
X46652000Y-54357000I0J-75000D01*
G01*
G37*
G36*
G01*
X47152000Y-54357000D02*
X47152000Y-55682000D01*
G75*
G02*
X47077000Y-55757000I-75000J0D01*
G01*
X46927000Y-55757000D01*
G75*
G02*
X46852000Y-55682000I0J75000D01*
G01*
X46852000Y-54357000D01*
G75*
G02*
X46927000Y-54282000I75000J0D01*
G01*
X47077000Y-54282000D01*
G75*
G02*
X47152000Y-54357000I0J-75000D01*
G01*
G37*
G36*
G01*
X47652000Y-54357000D02*
X47652000Y-55682000D01*
G75*
G02*
X47577000Y-55757000I-75000J0D01*
G01*
X47427000Y-55757000D01*
G75*
G02*
X47352000Y-55682000I0J75000D01*
G01*
X47352000Y-54357000D01*
G75*
G02*
X47427000Y-54282000I75000J0D01*
G01*
X47577000Y-54282000D01*
G75*
G02*
X47652000Y-54357000I0J-75000D01*
G01*
G37*
G36*
G01*
X48152000Y-54357000D02*
X48152000Y-55682000D01*
G75*
G02*
X48077000Y-55757000I-75000J0D01*
G01*
X47927000Y-55757000D01*
G75*
G02*
X47852000Y-55682000I0J75000D01*
G01*
X47852000Y-54357000D01*
G75*
G02*
X47927000Y-54282000I75000J0D01*
G01*
X48077000Y-54282000D01*
G75*
G02*
X48152000Y-54357000I0J-75000D01*
G01*
G37*
G36*
G01*
X48652000Y-54357000D02*
X48652000Y-55682000D01*
G75*
G02*
X48577000Y-55757000I-75000J0D01*
G01*
X48427000Y-55757000D01*
G75*
G02*
X48352000Y-55682000I0J75000D01*
G01*
X48352000Y-54357000D01*
G75*
G02*
X48427000Y-54282000I75000J0D01*
G01*
X48577000Y-54282000D01*
G75*
G02*
X48652000Y-54357000I0J-75000D01*
G01*
G37*
G36*
G01*
X49152000Y-54357000D02*
X49152000Y-55682000D01*
G75*
G02*
X49077000Y-55757000I-75000J0D01*
G01*
X48927000Y-55757000D01*
G75*
G02*
X48852000Y-55682000I0J75000D01*
G01*
X48852000Y-54357000D01*
G75*
G02*
X48927000Y-54282000I75000J0D01*
G01*
X49077000Y-54282000D01*
G75*
G02*
X49152000Y-54357000I0J-75000D01*
G01*
G37*
G36*
G01*
X49652000Y-54357000D02*
X49652000Y-55682000D01*
G75*
G02*
X49577000Y-55757000I-75000J0D01*
G01*
X49427000Y-55757000D01*
G75*
G02*
X49352000Y-55682000I0J75000D01*
G01*
X49352000Y-54357000D01*
G75*
G02*
X49427000Y-54282000I75000J0D01*
G01*
X49577000Y-54282000D01*
G75*
G02*
X49652000Y-54357000I0J-75000D01*
G01*
G37*
G36*
G01*
X50152000Y-54357000D02*
X50152000Y-55682000D01*
G75*
G02*
X50077000Y-55757000I-75000J0D01*
G01*
X49927000Y-55757000D01*
G75*
G02*
X49852000Y-55682000I0J75000D01*
G01*
X49852000Y-54357000D01*
G75*
G02*
X49927000Y-54282000I75000J0D01*
G01*
X50077000Y-54282000D01*
G75*
G02*
X50152000Y-54357000I0J-75000D01*
G01*
G37*
G36*
G01*
X50652000Y-54357000D02*
X50652000Y-55682000D01*
G75*
G02*
X50577000Y-55757000I-75000J0D01*
G01*
X50427000Y-55757000D01*
G75*
G02*
X50352000Y-55682000I0J75000D01*
G01*
X50352000Y-54357000D01*
G75*
G02*
X50427000Y-54282000I75000J0D01*
G01*
X50577000Y-54282000D01*
G75*
G02*
X50652000Y-54357000I0J-75000D01*
G01*
G37*
G36*
G01*
X52652000Y-56357000D02*
X52652000Y-56507000D01*
G75*
G02*
X52577000Y-56582000I-75000J0D01*
G01*
X51252000Y-56582000D01*
G75*
G02*
X51177000Y-56507000I0J75000D01*
G01*
X51177000Y-56357000D01*
G75*
G02*
X51252000Y-56282000I75000J0D01*
G01*
X52577000Y-56282000D01*
G75*
G02*
X52652000Y-56357000I0J-75000D01*
G01*
G37*
G36*
G01*
X52652000Y-56857000D02*
X52652000Y-57007000D01*
G75*
G02*
X52577000Y-57082000I-75000J0D01*
G01*
X51252000Y-57082000D01*
G75*
G02*
X51177000Y-57007000I0J75000D01*
G01*
X51177000Y-56857000D01*
G75*
G02*
X51252000Y-56782000I75000J0D01*
G01*
X52577000Y-56782000D01*
G75*
G02*
X52652000Y-56857000I0J-75000D01*
G01*
G37*
G36*
G01*
X52652000Y-57357000D02*
X52652000Y-57507000D01*
G75*
G02*
X52577000Y-57582000I-75000J0D01*
G01*
X51252000Y-57582000D01*
G75*
G02*
X51177000Y-57507000I0J75000D01*
G01*
X51177000Y-57357000D01*
G75*
G02*
X51252000Y-57282000I75000J0D01*
G01*
X52577000Y-57282000D01*
G75*
G02*
X52652000Y-57357000I0J-75000D01*
G01*
G37*
G36*
G01*
X52652000Y-57857000D02*
X52652000Y-58007000D01*
G75*
G02*
X52577000Y-58082000I-75000J0D01*
G01*
X51252000Y-58082000D01*
G75*
G02*
X51177000Y-58007000I0J75000D01*
G01*
X51177000Y-57857000D01*
G75*
G02*
X51252000Y-57782000I75000J0D01*
G01*
X52577000Y-57782000D01*
G75*
G02*
X52652000Y-57857000I0J-75000D01*
G01*
G37*
G36*
G01*
X52652000Y-58357000D02*
X52652000Y-58507000D01*
G75*
G02*
X52577000Y-58582000I-75000J0D01*
G01*
X51252000Y-58582000D01*
G75*
G02*
X51177000Y-58507000I0J75000D01*
G01*
X51177000Y-58357000D01*
G75*
G02*
X51252000Y-58282000I75000J0D01*
G01*
X52577000Y-58282000D01*
G75*
G02*
X52652000Y-58357000I0J-75000D01*
G01*
G37*
G36*
G01*
X52652000Y-58857000D02*
X52652000Y-59007000D01*
G75*
G02*
X52577000Y-59082000I-75000J0D01*
G01*
X51252000Y-59082000D01*
G75*
G02*
X51177000Y-59007000I0J75000D01*
G01*
X51177000Y-58857000D01*
G75*
G02*
X51252000Y-58782000I75000J0D01*
G01*
X52577000Y-58782000D01*
G75*
G02*
X52652000Y-58857000I0J-75000D01*
G01*
G37*
G36*
G01*
X52652000Y-59357000D02*
X52652000Y-59507000D01*
G75*
G02*
X52577000Y-59582000I-75000J0D01*
G01*
X51252000Y-59582000D01*
G75*
G02*
X51177000Y-59507000I0J75000D01*
G01*
X51177000Y-59357000D01*
G75*
G02*
X51252000Y-59282000I75000J0D01*
G01*
X52577000Y-59282000D01*
G75*
G02*
X52652000Y-59357000I0J-75000D01*
G01*
G37*
G36*
G01*
X52652000Y-59857000D02*
X52652000Y-60007000D01*
G75*
G02*
X52577000Y-60082000I-75000J0D01*
G01*
X51252000Y-60082000D01*
G75*
G02*
X51177000Y-60007000I0J75000D01*
G01*
X51177000Y-59857000D01*
G75*
G02*
X51252000Y-59782000I75000J0D01*
G01*
X52577000Y-59782000D01*
G75*
G02*
X52652000Y-59857000I0J-75000D01*
G01*
G37*
G36*
G01*
X52652000Y-60357000D02*
X52652000Y-60507000D01*
G75*
G02*
X52577000Y-60582000I-75000J0D01*
G01*
X51252000Y-60582000D01*
G75*
G02*
X51177000Y-60507000I0J75000D01*
G01*
X51177000Y-60357000D01*
G75*
G02*
X51252000Y-60282000I75000J0D01*
G01*
X52577000Y-60282000D01*
G75*
G02*
X52652000Y-60357000I0J-75000D01*
G01*
G37*
G36*
G01*
X52652000Y-60857000D02*
X52652000Y-61007000D01*
G75*
G02*
X52577000Y-61082000I-75000J0D01*
G01*
X51252000Y-61082000D01*
G75*
G02*
X51177000Y-61007000I0J75000D01*
G01*
X51177000Y-60857000D01*
G75*
G02*
X51252000Y-60782000I75000J0D01*
G01*
X52577000Y-60782000D01*
G75*
G02*
X52652000Y-60857000I0J-75000D01*
G01*
G37*
G36*
G01*
X52652000Y-61357000D02*
X52652000Y-61507000D01*
G75*
G02*
X52577000Y-61582000I-75000J0D01*
G01*
X51252000Y-61582000D01*
G75*
G02*
X51177000Y-61507000I0J75000D01*
G01*
X51177000Y-61357000D01*
G75*
G02*
X51252000Y-61282000I75000J0D01*
G01*
X52577000Y-61282000D01*
G75*
G02*
X52652000Y-61357000I0J-75000D01*
G01*
G37*
G36*
G01*
X52652000Y-61857000D02*
X52652000Y-62007000D01*
G75*
G02*
X52577000Y-62082000I-75000J0D01*
G01*
X51252000Y-62082000D01*
G75*
G02*
X51177000Y-62007000I0J75000D01*
G01*
X51177000Y-61857000D01*
G75*
G02*
X51252000Y-61782000I75000J0D01*
G01*
X52577000Y-61782000D01*
G75*
G02*
X52652000Y-61857000I0J-75000D01*
G01*
G37*
D13*
X43180000Y-44876000D03*
X43180000Y-40976000D03*
X44450000Y-44876000D03*
X44450000Y-40976000D03*
X45720000Y-44876000D03*
X45720000Y-40976000D03*
X46990000Y-44876000D03*
X46990000Y-40976000D03*
X48260000Y-44876000D03*
X48260000Y-40976000D03*
D14*
X84418000Y-101270000D03*
X84418000Y-104470000D03*
X89318000Y-101270000D03*
X89318000Y-104470000D03*
X98134000Y-101270000D03*
X98134000Y-104470000D03*
X103034000Y-101270000D03*
X103034000Y-104470000D03*
X70702000Y-101270000D03*
X70702000Y-104470000D03*
X75602000Y-101270000D03*
X75602000Y-104470000D03*
G36*
G01*
X36060000Y-69600000D02*
X36060000Y-70100000D01*
G75*
G02*
X35835000Y-70325000I-225000J0D01*
G01*
X35385000Y-70325000D01*
G75*
G02*
X35160000Y-70100000I0J225000D01*
G01*
X35160000Y-69600000D01*
G75*
G02*
X35385000Y-69375000I225000J0D01*
G01*
X35835000Y-69375000D01*
G75*
G02*
X36060000Y-69600000I0J-225000D01*
G01*
G37*
G36*
G01*
X37610000Y-69600000D02*
X37610000Y-70100000D01*
G75*
G02*
X37385000Y-70325000I-225000J0D01*
G01*
X36935000Y-70325000D01*
G75*
G02*
X36710000Y-70100000I0J225000D01*
G01*
X36710000Y-69600000D01*
G75*
G02*
X36935000Y-69375000I225000J0D01*
G01*
X37385000Y-69375000D01*
G75*
G02*
X37610000Y-69600000I0J-225000D01*
G01*
G37*
G36*
G01*
X54360000Y-102370000D02*
X54860000Y-102370000D01*
G75*
G02*
X55085000Y-102595000I0J-225000D01*
G01*
X55085000Y-103045000D01*
G75*
G02*
X54860000Y-103270000I-225000J0D01*
G01*
X54360000Y-103270000D01*
G75*
G02*
X54135000Y-103045000I0J225000D01*
G01*
X54135000Y-102595000D01*
G75*
G02*
X54360000Y-102370000I225000J0D01*
G01*
G37*
G36*
G01*
X54360000Y-100820000D02*
X54860000Y-100820000D01*
G75*
G02*
X55085000Y-101045000I0J-225000D01*
G01*
X55085000Y-101495000D01*
G75*
G02*
X54860000Y-101720000I-225000J0D01*
G01*
X54360000Y-101720000D01*
G75*
G02*
X54135000Y-101495000I0J225000D01*
G01*
X54135000Y-101045000D01*
G75*
G02*
X54360000Y-100820000I225000J0D01*
G01*
G37*
G36*
G01*
X108970000Y-102370000D02*
X109470000Y-102370000D01*
G75*
G02*
X109695000Y-102595000I0J-225000D01*
G01*
X109695000Y-103045000D01*
G75*
G02*
X109470000Y-103270000I-225000J0D01*
G01*
X108970000Y-103270000D01*
G75*
G02*
X108745000Y-103045000I0J225000D01*
G01*
X108745000Y-102595000D01*
G75*
G02*
X108970000Y-102370000I225000J0D01*
G01*
G37*
G36*
G01*
X108970000Y-100820000D02*
X109470000Y-100820000D01*
G75*
G02*
X109695000Y-101045000I0J-225000D01*
G01*
X109695000Y-101495000D01*
G75*
G02*
X109470000Y-101720000I-225000J0D01*
G01*
X108970000Y-101720000D01*
G75*
G02*
X108745000Y-101495000I0J225000D01*
G01*
X108745000Y-101045000D01*
G75*
G02*
X108970000Y-100820000I225000J0D01*
G01*
G37*
G36*
G01*
X126500000Y-66290000D02*
X126500000Y-65790000D01*
G75*
G02*
X126725000Y-65565000I225000J0D01*
G01*
X127175000Y-65565000D01*
G75*
G02*
X127400000Y-65790000I0J-225000D01*
G01*
X127400000Y-66290000D01*
G75*
G02*
X127175000Y-66515000I-225000J0D01*
G01*
X126725000Y-66515000D01*
G75*
G02*
X126500000Y-66290000I0J225000D01*
G01*
G37*
G36*
G01*
X124950000Y-66290000D02*
X124950000Y-65790000D01*
G75*
G02*
X125175000Y-65565000I225000J0D01*
G01*
X125625000Y-65565000D01*
G75*
G02*
X125850000Y-65790000I0J-225000D01*
G01*
X125850000Y-66290000D01*
G75*
G02*
X125625000Y-66515000I-225000J0D01*
G01*
X125175000Y-66515000D01*
G75*
G02*
X124950000Y-66290000I0J225000D01*
G01*
G37*
G36*
G01*
X105660000Y-33520000D02*
X105160000Y-33520000D01*
G75*
G02*
X104935000Y-33295000I0J225000D01*
G01*
X104935000Y-32845000D01*
G75*
G02*
X105160000Y-32620000I225000J0D01*
G01*
X105660000Y-32620000D01*
G75*
G02*
X105885000Y-32845000I0J-225000D01*
G01*
X105885000Y-33295000D01*
G75*
G02*
X105660000Y-33520000I-225000J0D01*
G01*
G37*
G36*
G01*
X105660000Y-35070000D02*
X105160000Y-35070000D01*
G75*
G02*
X104935000Y-34845000I0J225000D01*
G01*
X104935000Y-34395000D01*
G75*
G02*
X105160000Y-34170000I225000J0D01*
G01*
X105660000Y-34170000D01*
G75*
G02*
X105885000Y-34395000I0J-225000D01*
G01*
X105885000Y-34845000D01*
G75*
G02*
X105660000Y-35070000I-225000J0D01*
G01*
G37*
D15*
X47085000Y-87630000D03*
D16*
X45085000Y-87630000D03*
G36*
G01*
X51050000Y-33520000D02*
X50550000Y-33520000D01*
G75*
G02*
X50325000Y-33295000I0J225000D01*
G01*
X50325000Y-32845000D01*
G75*
G02*
X50550000Y-32620000I225000J0D01*
G01*
X51050000Y-32620000D01*
G75*
G02*
X51275000Y-32845000I0J-225000D01*
G01*
X51275000Y-33295000D01*
G75*
G02*
X51050000Y-33520000I-225000J0D01*
G01*
G37*
G36*
G01*
X51050000Y-35070000D02*
X50550000Y-35070000D01*
G75*
G02*
X50325000Y-34845000I0J225000D01*
G01*
X50325000Y-34395000D01*
G75*
G02*
X50550000Y-34170000I225000J0D01*
G01*
X51050000Y-34170000D01*
G75*
G02*
X51275000Y-34395000I0J-225000D01*
G01*
X51275000Y-34845000D01*
G75*
G02*
X51050000Y-35070000I-225000J0D01*
G01*
G37*
D17*
X44008000Y-80180000D03*
X45908000Y-80180000D03*
X45908000Y-82380000D03*
X44958000Y-82380000D03*
X44008000Y-82380000D03*
G36*
G01*
X41889000Y-71799000D02*
X42439000Y-71799000D01*
G75*
G02*
X42639000Y-71999000I0J-200000D01*
G01*
X42639000Y-72399000D01*
G75*
G02*
X42439000Y-72599000I-200000J0D01*
G01*
X41889000Y-72599000D01*
G75*
G02*
X41689000Y-72399000I0J200000D01*
G01*
X41689000Y-71999000D01*
G75*
G02*
X41889000Y-71799000I200000J0D01*
G01*
G37*
G36*
G01*
X41889000Y-70149000D02*
X42439000Y-70149000D01*
G75*
G02*
X42639000Y-70349000I0J-200000D01*
G01*
X42639000Y-70749000D01*
G75*
G02*
X42439000Y-70949000I-200000J0D01*
G01*
X41889000Y-70949000D01*
G75*
G02*
X41689000Y-70749000I0J200000D01*
G01*
X41689000Y-70349000D01*
G75*
G02*
X41889000Y-70149000I200000J0D01*
G01*
G37*
G36*
G01*
X48777000Y-66377000D02*
X48227000Y-66377000D01*
G75*
G02*
X48027000Y-66177000I0J200000D01*
G01*
X48027000Y-65777000D01*
G75*
G02*
X48227000Y-65577000I200000J0D01*
G01*
X48777000Y-65577000D01*
G75*
G02*
X48977000Y-65777000I0J-200000D01*
G01*
X48977000Y-66177000D01*
G75*
G02*
X48777000Y-66377000I-200000J0D01*
G01*
G37*
G36*
G01*
X48777000Y-68027000D02*
X48227000Y-68027000D01*
G75*
G02*
X48027000Y-67827000I0J200000D01*
G01*
X48027000Y-67427000D01*
G75*
G02*
X48227000Y-67227000I200000J0D01*
G01*
X48777000Y-67227000D01*
G75*
G02*
X48977000Y-67427000I0J-200000D01*
G01*
X48977000Y-67827000D01*
G75*
G02*
X48777000Y-68027000I-200000J0D01*
G01*
G37*
D18*
X47085000Y-93345000D03*
G36*
G01*
X44485000Y-93970001D02*
X44485000Y-92719999D01*
G75*
G02*
X44734999Y-92470000I249999J0D01*
G01*
X45435001Y-92470000D01*
G75*
G02*
X45685000Y-92719999I0J-249999D01*
G01*
X45685000Y-93970001D01*
G75*
G02*
X45435001Y-94220000I-249999J0D01*
G01*
X44734999Y-94220000D01*
G75*
G02*
X44485000Y-93970001I0J249999D01*
G01*
G37*
G36*
G01*
X44247750Y-71844000D02*
X45160250Y-71844000D01*
G75*
G02*
X45404000Y-72087750I0J-243750D01*
G01*
X45404000Y-72575250D01*
G75*
G02*
X45160250Y-72819000I-243750J0D01*
G01*
X44247750Y-72819000D01*
G75*
G02*
X44004000Y-72575250I0J243750D01*
G01*
X44004000Y-72087750D01*
G75*
G02*
X44247750Y-71844000I243750J0D01*
G01*
G37*
G36*
G01*
X44247750Y-69969000D02*
X45160250Y-69969000D01*
G75*
G02*
X45404000Y-70212750I0J-243750D01*
G01*
X45404000Y-70700250D01*
G75*
G02*
X45160250Y-70944000I-243750J0D01*
G01*
X44247750Y-70944000D01*
G75*
G02*
X44004000Y-70700250I0J243750D01*
G01*
X44004000Y-70212750D01*
G75*
G02*
X44247750Y-69969000I243750J0D01*
G01*
G37*
G36*
G01*
X41914000Y-65095000D02*
X42414000Y-65095000D01*
G75*
G02*
X42639000Y-65320000I0J-225000D01*
G01*
X42639000Y-65770000D01*
G75*
G02*
X42414000Y-65995000I-225000J0D01*
G01*
X41914000Y-65995000D01*
G75*
G02*
X41689000Y-65770000I0J225000D01*
G01*
X41689000Y-65320000D01*
G75*
G02*
X41914000Y-65095000I225000J0D01*
G01*
G37*
G36*
G01*
X41914000Y-63545000D02*
X42414000Y-63545000D01*
G75*
G02*
X42639000Y-63770000I0J-225000D01*
G01*
X42639000Y-64220000D01*
G75*
G02*
X42414000Y-64445000I-225000J0D01*
G01*
X41914000Y-64445000D01*
G75*
G02*
X41689000Y-64220000I0J225000D01*
G01*
X41689000Y-63770000D01*
G75*
G02*
X41914000Y-63545000I225000J0D01*
G01*
G37*
G36*
G01*
X46102000Y-52574000D02*
X46102000Y-52074000D01*
G75*
G02*
X46327000Y-51849000I225000J0D01*
G01*
X46777000Y-51849000D01*
G75*
G02*
X47002000Y-52074000I0J-225000D01*
G01*
X47002000Y-52574000D01*
G75*
G02*
X46777000Y-52799000I-225000J0D01*
G01*
X46327000Y-52799000D01*
G75*
G02*
X46102000Y-52574000I0J225000D01*
G01*
G37*
G36*
G01*
X44552000Y-52574000D02*
X44552000Y-52074000D01*
G75*
G02*
X44777000Y-51849000I225000J0D01*
G01*
X45227000Y-51849000D01*
G75*
G02*
X45452000Y-52074000I0J-225000D01*
G01*
X45452000Y-52574000D01*
G75*
G02*
X45227000Y-52799000I-225000J0D01*
G01*
X44777000Y-52799000D01*
G75*
G02*
X44552000Y-52574000I0J225000D01*
G01*
G37*
G36*
G01*
X50252000Y-67127000D02*
X50752000Y-67127000D01*
G75*
G02*
X50977000Y-67352000I0J-225000D01*
G01*
X50977000Y-67802000D01*
G75*
G02*
X50752000Y-68027000I-225000J0D01*
G01*
X50252000Y-68027000D01*
G75*
G02*
X50027000Y-67802000I0J225000D01*
G01*
X50027000Y-67352000D01*
G75*
G02*
X50252000Y-67127000I225000J0D01*
G01*
G37*
G36*
G01*
X50252000Y-65577000D02*
X50752000Y-65577000D01*
G75*
G02*
X50977000Y-65802000I0J-225000D01*
G01*
X50977000Y-66252000D01*
G75*
G02*
X50752000Y-66477000I-225000J0D01*
G01*
X50252000Y-66477000D01*
G75*
G02*
X50027000Y-66252000I0J225000D01*
G01*
X50027000Y-65802000D01*
G75*
G02*
X50252000Y-65577000I225000J0D01*
G01*
G37*
G36*
G01*
X52328000Y-67127000D02*
X52828000Y-67127000D01*
G75*
G02*
X53053000Y-67352000I0J-225000D01*
G01*
X53053000Y-67802000D01*
G75*
G02*
X52828000Y-68027000I-225000J0D01*
G01*
X52328000Y-68027000D01*
G75*
G02*
X52103000Y-67802000I0J225000D01*
G01*
X52103000Y-67352000D01*
G75*
G02*
X52328000Y-67127000I225000J0D01*
G01*
G37*
G36*
G01*
X52328000Y-65577000D02*
X52828000Y-65577000D01*
G75*
G02*
X53053000Y-65802000I0J-225000D01*
G01*
X53053000Y-66252000D01*
G75*
G02*
X52828000Y-66477000I-225000J0D01*
G01*
X52328000Y-66477000D01*
G75*
G02*
X52103000Y-66252000I0J225000D01*
G01*
X52103000Y-65802000D01*
G75*
G02*
X52328000Y-65577000I225000J0D01*
G01*
G37*
G36*
G01*
X47008000Y-75688000D02*
X47008000Y-75188000D01*
G75*
G02*
X47233000Y-74963000I225000J0D01*
G01*
X47683000Y-74963000D01*
G75*
G02*
X47908000Y-75188000I0J-225000D01*
G01*
X47908000Y-75688000D01*
G75*
G02*
X47683000Y-75913000I-225000J0D01*
G01*
X47233000Y-75913000D01*
G75*
G02*
X47008000Y-75688000I0J225000D01*
G01*
G37*
G36*
G01*
X45458000Y-75688000D02*
X45458000Y-75188000D01*
G75*
G02*
X45683000Y-74963000I225000J0D01*
G01*
X46133000Y-74963000D01*
G75*
G02*
X46358000Y-75188000I0J-225000D01*
G01*
X46358000Y-75688000D01*
G75*
G02*
X46133000Y-75913000I-225000J0D01*
G01*
X45683000Y-75913000D01*
G75*
G02*
X45458000Y-75688000I0J225000D01*
G01*
G37*
G36*
G01*
X47008000Y-77974000D02*
X47008000Y-77474000D01*
G75*
G02*
X47233000Y-77249000I225000J0D01*
G01*
X47683000Y-77249000D01*
G75*
G02*
X47908000Y-77474000I0J-225000D01*
G01*
X47908000Y-77974000D01*
G75*
G02*
X47683000Y-78199000I-225000J0D01*
G01*
X47233000Y-78199000D01*
G75*
G02*
X47008000Y-77974000I0J225000D01*
G01*
G37*
G36*
G01*
X45458000Y-77974000D02*
X45458000Y-77474000D01*
G75*
G02*
X45683000Y-77249000I225000J0D01*
G01*
X46133000Y-77249000D01*
G75*
G02*
X46358000Y-77474000I0J-225000D01*
G01*
X46358000Y-77974000D01*
G75*
G02*
X46133000Y-78199000I-225000J0D01*
G01*
X45683000Y-78199000D01*
G75*
G02*
X45458000Y-77974000I0J225000D01*
G01*
G37*
G36*
G01*
X43227000Y-48518000D02*
X43227000Y-49018000D01*
G75*
G02*
X43002000Y-49243000I-225000J0D01*
G01*
X42552000Y-49243000D01*
G75*
G02*
X42327000Y-49018000I0J225000D01*
G01*
X42327000Y-48518000D01*
G75*
G02*
X42552000Y-48293000I225000J0D01*
G01*
X43002000Y-48293000D01*
G75*
G02*
X43227000Y-48518000I0J-225000D01*
G01*
G37*
G36*
G01*
X44777000Y-48518000D02*
X44777000Y-49018000D01*
G75*
G02*
X44552000Y-49243000I-225000J0D01*
G01*
X44102000Y-49243000D01*
G75*
G02*
X43877000Y-49018000I0J225000D01*
G01*
X43877000Y-48518000D01*
G75*
G02*
X44102000Y-48293000I225000J0D01*
G01*
X44552000Y-48293000D01*
G75*
G02*
X44777000Y-48518000I0J-225000D01*
G01*
G37*
D14*
X111850000Y-101270000D03*
X111850000Y-104470000D03*
X116750000Y-101270000D03*
X116750000Y-104470000D03*
X56986000Y-101270000D03*
X56986000Y-104470000D03*
X61886000Y-101270000D03*
X61886000Y-104470000D03*
X43270000Y-101270000D03*
X43270000Y-104470000D03*
X48170000Y-101270000D03*
X48170000Y-104470000D03*
D19*
X37160000Y-100420000D03*
X33960000Y-100420000D03*
X37160000Y-105320000D03*
X33960000Y-105320000D03*
X125400000Y-105320000D03*
X128600000Y-105320000D03*
X125400000Y-100420000D03*
X128600000Y-100420000D03*
X37160000Y-86450000D03*
X33960000Y-86450000D03*
X37160000Y-91350000D03*
X33960000Y-91350000D03*
X125400000Y-91350000D03*
X128600000Y-91350000D03*
X125400000Y-86450000D03*
X128600000Y-86450000D03*
X37160000Y-72480000D03*
X33960000Y-72480000D03*
X37160000Y-77380000D03*
X33960000Y-77380000D03*
X125400000Y-77380000D03*
X128600000Y-77380000D03*
X125400000Y-72480000D03*
X128600000Y-72480000D03*
X37160000Y-58510000D03*
X33960000Y-58510000D03*
X37160000Y-63410000D03*
X33960000Y-63410000D03*
X125400000Y-63410000D03*
X128600000Y-63410000D03*
X125400000Y-58510000D03*
X128600000Y-58510000D03*
X37160000Y-44540000D03*
X33960000Y-44540000D03*
X37160000Y-49440000D03*
X33960000Y-49440000D03*
X125400000Y-49440000D03*
X128600000Y-49440000D03*
X125400000Y-44540000D03*
X128600000Y-44540000D03*
X37160000Y-30570000D03*
X33960000Y-30570000D03*
X37160000Y-35470000D03*
X33960000Y-35470000D03*
X125400000Y-35470000D03*
X128600000Y-35470000D03*
X125400000Y-30570000D03*
X128600000Y-30570000D03*
D14*
X116750000Y-34620000D03*
X116750000Y-31420000D03*
X111850000Y-34620000D03*
X111850000Y-31420000D03*
X103034000Y-34620000D03*
X103034000Y-31420000D03*
X98134000Y-34620000D03*
X98134000Y-31420000D03*
X89318000Y-34620000D03*
X89318000Y-31420000D03*
X84418000Y-34620000D03*
X84418000Y-31420000D03*
X75602000Y-34620000D03*
X75602000Y-31420000D03*
X70702000Y-34620000D03*
X70702000Y-31420000D03*
X61886000Y-34620000D03*
X61886000Y-31420000D03*
X56986000Y-34620000D03*
X56986000Y-31420000D03*
X48170000Y-34620000D03*
X48170000Y-31420000D03*
X43270000Y-34620000D03*
X43270000Y-31420000D03*
M02*
