M48
; DRILL file {KiCad 5.1.10} date Sun May  9 13:27:55 2021
; FORMAT={-:-/ absolute / metric / decimal}
; #@! TF.CreationDate,2021-05-09T13:27:55-07:00
; #@! TF.GenerationSoftware,Kicad,Pcbnew,5.1.10
; #@! TF.FileFunction,Plated,1,2,PTH
FMAT,2
METRIC
T1C0.400
T2C0.750
T3C0.800
%
G90
G05
T1
X33.96Y-33.782
X33.96Y-47.752
X33.96Y-61.849
X33.96Y-75.692
X33.96Y-89.789
X33.96Y-103.632
X35.611Y-68.072
X41.148Y-48.844
X41.91Y-61.468
X42.113Y-67.31
X42.24Y-73.914
X45.034Y-84.074
X45.085Y-31.42
X45.085Y-34.798
X45.085Y-59.817
X45.339Y-61.214
X46.355Y-61.722
X46.482Y-104.47
X46.863Y-49.022
X46.99Y-38.481
X46.99Y-47.752
X47.244Y-56.718
X48.006Y-46.863
X48.26Y-50.8
X48.26Y-52.375
X48.59Y-69.342
X49.022Y-56.388
X49.149Y-75.489
X49.149Y-77.775
X49.784Y-44.577
X49.962Y-61.747
X50.267Y-58.471
X50.495Y-69.342
X52.578Y-33.071
X52.654Y-69.342
X56.388Y-102.794
X58.801Y-31.42
X60.198Y-104.47
X72.39Y-31.293
X73.914Y-104.47
X86.106Y-31.293
X87.63Y-104.47
X99.949Y-31.42
X101.346Y-104.47
X107.188Y-33.071
X110.998Y-102.921
X113.665Y-31.42
X115.062Y-104.47
X126.924Y-64.262
X128.6Y-32.385
X128.6Y-46.228
X128.6Y-60.198
X128.6Y-74.041
X128.6Y-88.265
X128.6Y-102.108
T2
X45.085Y-93.345
X47.085Y-93.345
T3
X45.085Y-87.63
X47.085Y-87.63
T0
M30
